<!-- Generated by IcoMoon.io -->
<svg version="1.1" xmlns="http://www.w3.org/2000/svg" width="9" height="10" viewBox="0 0 9 10">
<title>check-circle-o</title>
<path d="M6.535 4.537l-2.355 2.355c-0.14 0.14-0.363 0.14-0.502 0l-1.641-1.641c-0.14-0.14-0.14-0.363 0-0.502l0.569-0.569c0.14-0.14 0.363-0.14 0.502 0l0.82 0.82 1.535-1.535c0.14-0.14 0.363-0.14 0.502 0l0.569 0.569c0.14 0.14 0.14 0.363 0 0.502zM7.321 5c0-1.674-1.362-3.036-3.036-3.036s-3.036 1.362-3.036 3.036 1.362 3.036 3.036 3.036 3.036-1.362 3.036-3.036zM8.571 5c0 2.366-1.92 4.286-4.286 4.286s-4.286-1.92-4.286-4.286 1.92-4.286 4.286-4.286 4.286 1.92 4.286 4.286z" fill="#B199F6"></path>
</svg>
