<!-- Generated by IcoMoon.io -->
<svg version="1.1" xmlns="http://www.w3.org/2000/svg" width="9" height="10" viewBox="0 0 9 10">
<title>check-square-o</title>
<path d="M7.857 5.19v1.775c0 0.887-0.72 1.607-1.607 1.607h-4.643c-0.887 0-1.607-0.72-1.607-1.607v-4.643c0-0.887 0.72-1.607 1.607-1.607h4.643c0.223 0 0.446 0.045 0.653 0.14 0.050 0.022 0.089 0.073 0.1 0.128 0.011 0.061-0.006 0.117-0.050 0.162l-0.273 0.273c-0.033 0.033-0.084 0.056-0.128 0.056-0.017 0-0.033-0.006-0.050-0.011-0.084-0.022-0.167-0.033-0.251-0.033h-4.643c-0.491 0-0.893 0.402-0.893 0.893v4.643c0 0.491 0.402 0.893 0.893 0.893h4.643c0.491 0 0.893-0.402 0.893-0.893v-1.417c0-0.045 0.017-0.089 0.050-0.123l0.357-0.357c0.039-0.039 0.084-0.056 0.128-0.056 0.022 0 0.045 0.006 0.067 0.017 0.067 0.028 0.112 0.089 0.112 0.162zM9.146 2.461l-4.542 4.542c-0.179 0.179-0.458 0.179-0.636 0l-2.4-2.4c-0.179-0.179-0.179-0.458 0-0.636l0.614-0.614c0.179-0.179 0.458-0.179 0.636 0l1.468 1.468 3.61-3.61c0.179-0.179 0.458-0.179 0.636 0l0.614 0.614c0.179 0.179 0.179 0.458 0 0.636z"></path>
</svg>
