<!-- Generated by IcoMoon.io -->
<svg version="1.1" xmlns="http://www.w3.org/2000/svg" width="10" height="10" viewBox="0 0 10 10">
<title>glass</title>
<path d="M7.596 0.165c-0.054-0.101-0.16-0.165-0.275-0.165h-4.641c-0.115 0-0.221 0.063-0.275 0.165-0.346 0.645-0.529 1.398-0.529 2.179 0 1.029 0.316 2 0.89 2.734 0.444 0.567 1.001 0.943 1.61 1.095v3.202h-0.937c-0.173 0-0.313 0.14-0.313 0.313s0.14 0.313 0.313 0.313h3.125c0.173 0 0.313-0.14 0.313-0.313s-0.14-0.313-0.313-0.313h-0.938v-3.202c0.609-0.153 1.166-0.529 1.61-1.095 0.574-0.733 0.89-1.704 0.89-2.734 0-0.781-0.183-1.534-0.529-2.179zM2.872 0.625h4.256c0.244 0.517 0.372 1.107 0.372 1.719 0 0.052-0.001 0.104-0.003 0.156h-4.994c-0.002-0.052-0.003-0.104-0.003-0.156-0-0.612 0.128-1.202 0.372-1.719z" fill="#B199F6"></path>
</svg>
