<!-- Generated by IcoMoon.io -->
<svg version="1.1" xmlns="http://www.w3.org/2000/svg" width="10" height="10" viewBox="0 0 10 10">
<title>hand-o-right</title>
<path d="M1.429 7.5c0-0.195-0.162-0.357-0.357-0.357s-0.357 0.162-0.357 0.357 0.162 0.357 0.357 0.357 0.357-0.162 0.357-0.357zM9.286 4.286c0-0.379-0.34-0.714-0.714-0.714h-3.214c0-0.352 0.536-0.714 0.536-1.429 0-0.536-0.419-0.714-0.893-0.714-0.156 0-0.441 0.647-0.502 0.776-0.067 0.123-0.134 0.246-0.206 0.363-0.184 0.296-0.396 0.552-0.625 0.809-0.357 0.407-0.753 0.91-1.345 0.91h-0.179v3.571h0.179c0.977 0 1.931 0.714 3.013 0.714 0.625 0 1.055-0.262 1.055-0.932 0-0.106-0.011-0.212-0.028-0.313 0.234-0.128 0.363-0.446 0.363-0.703 0-0.134-0.033-0.268-0.1-0.385 0.19-0.179 0.296-0.402 0.296-0.664 0-0.179-0.078-0.441-0.195-0.575h1.847c0.385 0 0.714-0.329 0.714-0.714zM10 4.28c0 0.781-0.647 1.434-1.429 1.434h-0.943c-0.017 0.234-0.089 0.458-0.206 0.664 0.011 0.078 0.017 0.162 0.017 0.24 0 0.357-0.117 0.714-0.335 0.993 0.011 1.055-0.709 1.674-1.741 1.674-0.625 0-1.217-0.173-1.797-0.385-0.34-0.123-0.893-0.329-1.244-0.329h-1.607c-0.396 0-0.714-0.318-0.714-0.714v-3.571c0-0.396 0.318-0.714 0.714-0.714h1.607c0.268 0 0.647-0.48 0.809-0.664 0.201-0.229 0.391-0.458 0.558-0.72 0.324-0.519 0.564-1.473 1.311-1.473 0.887 0 1.607 0.485 1.607 1.429 0 0.246-0.039 0.485-0.123 0.714h2.087c0.77 0 1.429 0.653 1.429 1.423z" fill="#FDDB83"></path>
</svg>
