<svg width="23" height="23" viewBox="0 0 23 23" fill="none" xmlns="http://www.w3.org/2000/svg">
<path d="M11.4993 15.3346C13.6164 15.3346 15.3327 13.6184 15.3327 11.5013C15.3327 9.38421 13.6164 7.66797 11.4993 7.66797C9.38226 7.66797 7.66602 9.38421 7.66602 11.5013C7.66602 13.6184 9.38226 15.3346 11.4993 15.3346Z" stroke="#044A75" stroke-width="2" stroke-linecap="round" stroke-linejoin="round"/>
<path d="M15.3333 7.66664V12.4583C15.3333 13.2208 15.6362 13.9521 16.1754 14.4912C16.7146 15.0304 17.4458 15.3333 18.2083 15.3333C18.9708 15.3333 19.7021 15.0304 20.2413 14.4912C20.7804 13.9521 21.0833 13.2208 21.0833 12.4583V11.5C21.0832 9.33704 20.3514 7.23777 19.0069 5.54348C17.6624 3.8492 15.7843 2.65957 13.6779 2.16801C11.5716 1.67645 9.36094 1.91189 7.40537 2.83604C5.44981 3.76018 3.86438 5.31868 2.90687 7.25813C1.94936 9.19757 1.67609 11.4039 2.13149 13.5183C2.58689 15.6328 3.74418 17.531 5.41519 18.9043C7.08619 20.2776 9.17262 21.0453 11.3352 21.0825C13.4978 21.1197 15.6094 20.4242 17.3267 19.1091" stroke="#044A75" stroke-width="2" stroke-linecap="round" stroke-linejoin="round"/>
</svg>
