<svg width="46" height="46" viewBox="0 0 46 46" fill="none" xmlns="http://www.w3.org/2000/svg">
<g clip-path="url(#clip0_1789_5586)">
<g opacity="0.7">
<path d="M19.2074 30.1767C18.5985 30.1767 18.0841 29.479 18.0841 28.653C18.0841 27.5492 17.1928 26.6512 16.0973 26.6512C15.0017 26.6512 14.1105 27.5492 14.1105 28.653C14.1105 31.7009 16.397 34.1805 19.2074 34.1805H20.6186V36.1824C20.6186 37.2863 21.5098 38.1843 22.6054 38.1843C23.701 38.1843 24.5922 37.2863 24.5922 36.1824V34.1805H26.0034C26.7724 34.1805 27.512 33.9986 28.2017 33.6399C28.5268 33.4709 28.6543 33.0684 28.4865 32.7409C28.3188 32.4135 27.9194 32.2849 27.5943 32.454C27.0943 32.714 26.559 32.8459 26.0034 32.8459H23.9299C23.5642 32.8459 23.2677 33.1447 23.2677 33.5132V36.1824C23.2677 36.5504 22.9706 36.8497 22.6054 36.8497C22.2402 36.8497 21.9431 36.5504 21.9431 36.1824V33.5132C21.9431 33.1447 21.6466 32.8459 21.2809 32.8459H19.2074C17.1273 32.8459 15.435 30.965 15.435 28.653C15.435 28.2851 15.732 27.9858 16.0973 27.9858C16.4624 27.9858 16.7595 28.2851 16.7595 28.653C16.7595 30.2291 17.8577 31.5113 19.2074 31.5113H21.2809C21.6466 31.5113 21.9431 31.2125 21.9431 30.844V24.1117C21.9431 23.7432 21.6466 23.4444 21.2809 23.4444H19.2075C18.185 23.4444 17.2281 22.9982 16.5132 22.1878C15.8179 21.3997 15.435 20.3568 15.435 19.2515V16.9011C15.435 14.5892 17.1273 12.7083 19.2074 12.7083H21.2809C21.6466 12.7083 21.9431 12.4095 21.9431 12.041V9.3718C21.9431 9.0038 22.2402 8.7045 22.6054 8.7045C22.9706 8.7045 23.2677 9.0038 23.2677 9.3718V12.041C23.2677 12.4095 23.5642 12.7083 23.9299 12.7083H26.0034C28.0835 12.7083 29.7758 14.5892 29.7758 16.9011C29.7758 17.2691 29.4788 17.5684 29.1136 17.5684C28.7484 17.5684 28.4513 17.2691 28.4513 16.9011C28.4513 15.3251 27.3532 14.0429 26.0034 14.0429H23.9299C23.5642 14.0429 23.2677 14.3417 23.2677 14.7102V21.4424C23.2677 21.6194 23.3374 21.7891 23.4617 21.9142C23.5859 22.0394 23.7543 22.1097 23.9299 22.1097H26.0033C27.0258 22.1097 27.9827 22.5559 28.6976 23.3663C29.3929 24.1544 29.7758 25.1972 29.7758 26.3026V28.653C29.7758 29.3045 29.6443 29.929 29.3852 30.5093C29.2351 30.8453 29.3837 31.2404 29.7172 31.3916C30.0507 31.543 30.4428 31.3932 30.5929 31.0571C30.9296 30.3035 31.1004 29.4946 31.1004 28.653V26.3026C31.1004 24.87 30.5986 23.5124 29.6875 22.4796C28.7178 21.3804 27.4093 20.775 26.0032 20.7751H24.5921V15.3775H26.0033C26.6122 15.3775 27.1267 16.0752 27.1267 16.9011C27.1267 18.005 28.0179 18.903 29.1135 18.903C30.209 18.903 31.1003 18.005 31.1003 16.9011C31.1003 13.8533 28.8138 11.3737 26.0033 11.3737H24.5922V9.3718C24.5922 8.26791 23.701 7.3699 22.6054 7.3699C21.5098 7.3699 20.6186 8.26791 20.6186 9.3718V11.3737H19.2074C16.397 11.3737 14.1105 13.8533 14.1105 16.9011V19.2515C14.1105 20.6841 14.6122 22.0417 15.5233 23.0745C16.493 24.1737 17.8015 24.7791 19.2076 24.779H20.6187V30.1767H19.2074ZM22.6054 3.55892C18.4967 3.55892 14.5801 4.86042 11.2793 7.32275C10.9853 7.54198 10.9234 7.95988 11.1411 8.25607C11.3588 8.55235 11.7735 8.61472 12.0674 8.39532C15.1386 6.10444 18.7825 4.89352 22.6054 4.89352C32.3921 4.89352 40.3542 12.916 40.3542 22.7771C40.3542 32.6382 32.3921 40.6607 22.6054 40.6607C12.8187 40.6607 4.85663 32.6382 4.85663 22.7771C4.85663 18.1462 6.61367 13.7514 9.80412 10.4021C10.0574 10.1363 10.0488 9.71381 9.78487 9.45863C9.52094 9.20346 9.10168 9.21209 8.84852 9.47803C5.42018 13.077 3.53209 17.8 3.53209 22.7771C3.53209 33.374 12.0883 41.9953 22.6054 41.9953C33.1225 41.9953 41.6787 33.374 41.6787 22.7771C41.6787 12.1801 33.1225 3.55892 22.6054 3.55892ZM38.5899 6.6712C34.3202 2.36926 28.6435 0 22.6054 0C16.5673 0 10.8906 2.36926 6.62091 6.6712C2.3514 10.9733 0 16.6931 0 22.7771C0 28.8611 2.3514 34.5809 6.62091 38.883C10.8906 43.1849 16.5673 45.5542 22.6054 45.5542C28.6435 45.5542 34.3202 43.1849 38.5899 38.883C42.8594 34.5809 45.2108 28.8611 45.2108 22.7771C45.2108 16.6931 42.8594 10.9733 38.5899 6.6712ZM37.6533 37.9393C33.6338 41.9892 28.2898 44.2196 22.6054 44.2196C16.921 44.2196 11.577 41.9892 7.55753 37.9393C3.5381 33.8893 1.32454 28.5046 1.32454 22.7771C1.32454 17.0495 3.5381 11.6649 7.55753 7.61493C11.577 3.56497 16.921 1.3346 22.6054 1.3346C28.2898 1.3346 33.6338 3.56497 37.6533 7.61493C41.6727 11.6649 43.8863 17.0495 43.8863 22.7771C43.8863 28.5046 41.6727 33.8893 37.6533 37.9393ZM26.0034 23.4443H23.9299C23.5642 23.4443 23.2677 23.7431 23.2677 24.1116V30.844C23.2677 31.2125 23.5642 31.5113 23.9299 31.5113H26.0034C27.3532 31.5113 28.4513 30.2291 28.4513 28.653V26.3026C28.4513 25.5244 28.1872 24.7965 27.7076 24.253C27.2476 23.7315 26.6424 23.4443 26.0034 23.4443ZM27.1268 28.653C27.1268 29.479 26.6124 30.1767 26.0035 30.1767H24.5922V24.7789H26.0034C26.2588 24.7789 26.5125 24.9069 26.7176 25.1396C26.9815 25.4386 27.1268 25.8516 27.1268 26.3026V28.653H27.1268ZM21.2809 14.0429H19.2074C17.8577 14.0429 16.7595 15.3251 16.7595 16.9011V19.2515C16.7595 20.0297 17.0236 20.7576 17.5032 21.3011C17.9632 21.8226 18.5685 22.1098 19.2075 22.1098H21.2809C21.6466 22.1098 21.9431 21.811 21.9431 21.4425V14.7102C21.9431 14.3417 21.6466 14.0429 21.2809 14.0429ZM20.6186 20.7752H19.2074C18.952 20.7752 18.6983 20.6472 18.4932 20.4145C18.2293 20.1155 18.0841 19.7025 18.0841 19.2515V16.9011C18.0841 16.0752 18.5985 15.3775 19.2074 15.3775H20.6186V20.7752Z" fill="#044A75"/>
</g>
</g>
<defs>
<clipPath id="clip0_1789_5586">
<rect width="45.2108" height="45.5542" fill="white"/>
</clipPath>
</defs>
</svg>
