<svg width="46" height="46" viewBox="0 0 46 46" fill="none" xmlns="http://www.w3.org/2000/svg">
<g clip-path="url(#clip0_1789_5570)">
<g opacity="0.7">
<path d="M21.2702 29.0196C20.7926 29.0196 20.3891 28.4723 20.3891 27.8245C20.3891 26.9587 19.6901 26.2544 18.8309 26.2544C17.9716 26.2544 17.2726 26.9587 17.2726 27.8245C17.2726 30.215 19.0659 32.1598 21.2702 32.1598H22.377V33.7299C22.377 34.5957 23.076 35.3 23.9353 35.3C24.7946 35.3 25.4936 34.5957 25.4936 33.7299V32.1598H26.6004C27.2035 32.1598 27.7836 32.0172 28.3246 31.7358C28.5795 31.6032 28.6795 31.2876 28.5479 31.0307C28.4164 30.7739 28.1032 30.6731 27.8482 30.8057C27.456 31.0096 27.0361 31.1131 26.6004 31.1131H24.9741C24.6873 31.1131 24.4547 31.3474 24.4547 31.6364V33.7299C24.4547 34.0185 24.2217 34.2533 23.9353 34.2533C23.6488 34.2533 23.4159 34.0185 23.4159 33.7299V31.6364C23.4159 31.3474 23.1833 31.1131 22.8964 31.1131H21.2702C19.6387 31.1131 18.3114 29.6378 18.3114 27.8245C18.3114 27.5359 18.5444 27.3012 18.8309 27.3012C19.1172 27.3012 19.3503 27.5359 19.3503 27.8245C19.3503 29.0607 20.2116 30.0663 21.2702 30.0663H22.8964C23.1833 30.0663 23.4159 29.832 23.4159 29.5429V24.2627C23.4159 23.9737 23.1833 23.7393 22.8964 23.7393H21.2703C20.4683 23.7393 19.7178 23.3894 19.1571 22.7538C18.6117 22.1356 18.3114 21.3177 18.3114 20.4508V18.6074C18.3114 16.7941 19.6387 15.3188 21.2702 15.3188H22.8964C23.1833 15.3188 23.4159 15.0845 23.4159 14.7955V12.702C23.4159 12.4134 23.6488 12.1786 23.9353 12.1786C24.2217 12.1786 24.4547 12.4134 24.4547 12.702V14.7955C24.4547 15.0845 24.6873 15.3188 24.9741 15.3188H26.6004C28.2318 15.3188 29.5592 16.7941 29.5592 18.6074C29.5592 18.896 29.3262 19.1307 29.0397 19.1307C28.7533 19.1307 28.5203 18.896 28.5203 18.6074C28.5203 17.3712 27.659 16.3656 26.6004 16.3656H24.9741C24.6873 16.3656 24.4547 16.5999 24.4547 16.889V22.1691C24.4547 22.3079 24.5094 22.4411 24.6069 22.5392C24.7043 22.6374 24.8364 22.6925 24.9741 22.6925H26.6003C27.4023 22.6925 28.1528 23.0425 28.7135 23.6781C29.2589 24.2962 29.5592 25.1141 29.5592 25.981V27.8245C29.5592 28.3355 29.456 28.8253 29.2528 29.2804C29.135 29.544 29.2516 29.8538 29.5132 29.9725C29.7747 30.0912 30.0822 29.9736 30.2 29.7101C30.4641 29.119 30.598 28.4846 30.598 27.8245V25.981C30.598 24.8574 30.2045 23.7926 29.4899 22.9826C28.7293 22.1205 27.7031 21.6457 26.6002 21.6458H25.4935V17.4123H26.6003C27.0779 17.4123 27.4814 17.9596 27.4814 18.6074C27.4814 19.4732 28.1804 20.1775 29.0397 20.1775C29.8989 20.1775 30.5979 19.4732 30.5979 18.6074C30.5979 16.2169 28.8046 14.2721 26.6003 14.2721H25.4936V12.702C25.4936 11.8362 24.7946 11.1319 23.9353 11.1319C23.076 11.1319 22.377 11.8362 22.377 12.702V14.2721H21.2702C19.0659 14.2721 17.2726 16.2169 17.2726 18.6074V20.4508C17.2726 21.5744 17.6661 22.6392 18.3807 23.4492C19.1413 24.3113 20.1675 24.7861 21.2704 24.7861H22.3771V29.0196H21.2702ZM23.9353 8.14287C20.7128 8.14287 17.641 9.16366 15.0521 11.0949C14.8215 11.2668 14.773 11.5946 14.9437 11.8269C15.1144 12.0593 15.4397 12.1082 15.6702 11.9361C18.0789 10.1394 20.937 9.18961 23.9353 9.18961C31.6112 9.18961 37.8559 15.4818 37.8559 23.216C37.8559 30.9501 31.6112 37.2423 23.9353 37.2423C16.2594 37.2423 10.0147 30.9501 10.0147 23.216C10.0147 19.5839 11.3928 16.137 13.8951 13.5101C14.0937 13.3016 14.087 12.9702 13.88 12.7701C13.673 12.57 13.3441 12.5767 13.1456 12.7853C10.4567 15.608 8.97584 19.3124 8.97584 23.216C8.97584 31.5273 15.6866 38.289 23.9353 38.289C32.184 38.289 38.8948 31.5273 38.8948 23.216C38.8948 14.9046 32.184 8.14287 23.9353 8.14287ZM36.4722 10.5839C33.1234 7.20981 28.6711 5.35156 23.9353 5.35156C19.1995 5.35156 14.7472 7.20981 11.3984 10.5839C8.0498 13.9581 6.20557 18.4442 6.20557 23.216C6.20557 27.9877 8.0498 32.4738 11.3984 35.848C14.7472 39.2221 19.1995 41.0803 23.9353 41.0803C28.6711 41.0803 33.1234 39.2221 36.4722 35.848C39.8208 32.4738 41.665 27.9877 41.665 23.216C41.665 18.4442 39.8208 13.9581 36.4722 10.5839ZM35.7375 35.1078C32.585 38.2843 28.3936 40.0336 23.9353 40.0336C19.477 40.0336 15.2855 38.2843 12.133 35.1078C8.98055 31.9314 7.24442 27.7081 7.24442 23.216C7.24442 18.7238 8.98055 14.5005 12.133 11.3241C15.2855 8.14762 19.477 6.3983 23.9353 6.3983C28.3936 6.3983 32.585 8.14762 35.7375 11.3241C38.89 14.5005 40.6262 18.7238 40.6262 23.216C40.6262 27.7081 38.89 31.9314 35.7375 35.1078ZM26.6004 23.7393H24.9741C24.6873 23.7393 24.4547 23.9736 24.4547 24.2626V29.5429C24.4547 29.832 24.6873 30.0663 24.9741 30.0663H26.6004C27.659 30.0663 28.5203 29.0607 28.5203 27.8245V25.981C28.5203 25.3707 28.3132 24.7998 27.937 24.3735C27.5763 23.9645 27.1016 23.7393 26.6004 23.7393ZM27.4815 27.8245C27.4815 28.4723 27.078 29.0196 26.6004 29.0196H25.4936V24.786H26.6004C26.8007 24.786 26.9997 24.8864 27.1606 25.0689C27.3675 25.3034 27.4814 25.6274 27.4814 25.981V27.8245H27.4815ZM22.8964 16.3656H21.2702C20.2116 16.3656 19.3503 17.3712 19.3503 18.6074V20.4508C19.3503 21.0611 19.5574 21.632 19.9336 22.0583C20.2943 22.4673 20.7691 22.6926 21.2703 22.6926H22.8964C23.1833 22.6926 23.4159 22.4582 23.4159 22.1692V16.889C23.4159 16.5999 23.1833 16.3656 22.8964 16.3656ZM22.377 21.6458H21.2702C21.0699 21.6458 20.8709 21.5454 20.71 21.3629C20.5031 21.1284 20.3891 20.8045 20.3891 20.4508V18.6074C20.3891 17.9596 20.7926 17.4123 21.2702 17.4123H22.377V21.6458Z" fill="#044A75"/>
</g>
<path opacity="0.7" d="M39.4946 6.42772C39.3189 6.22911 38.9984 6.19663 38.7785 6.3554C38.5586 6.51411 38.5227 6.8039 38.6984 7.00258L39.2095 7.58063H35.969C35.6875 7.58063 35.4595 7.78674 35.4595 8.04111C35.4595 8.29547 35.6875 8.50158 35.969 8.50158H39.2095L38.6984 9.07963C38.5227 9.27831 38.5585 9.5681 38.7785 9.72681C38.9997 9.88651 39.3202 9.85188 39.4946 9.65449L40.6669 8.3285C40.8155 8.1604 40.8155 7.92175 40.6669 7.75365L39.4946 6.42772Z" fill="#044A75"/>
<path opacity="0.7" d="M5.7163 39.1297C5.89145 39.3278 6.21193 39.3612 6.43246 39.202C6.65232 39.0433 6.68819 38.7535 6.5125 38.5549L6.00145 37.9768H9.2418C9.52328 37.9768 9.75135 37.7707 9.75135 37.5163C9.75135 37.262 9.52328 37.0559 9.2418 37.0559H6.00138L6.51243 36.4778C6.68812 36.2792 6.65232 35.9894 6.4324 35.8307C6.21247 35.6719 5.89179 35.7042 5.71624 35.903L4.54392 37.2289C4.39527 37.3971 4.39527 37.6357 4.54392 37.8038L5.7163 39.1297Z" fill="#044A75"/>
<path opacity="0.7" d="M3.77876 41.0645H13.7071C13.9705 41.0645 14.1838 40.8464 14.1838 40.5774C14.1838 40.3083 13.9705 40.0903 13.7071 40.0903H3.9407V38.896C3.9407 38.6985 3.82401 38.5206 3.64529 38.4454C3.46638 38.3702 3.2611 38.413 3.12515 38.5534L0.137836 41.6391C-0.0459045 41.8289 -0.0459045 42.1345 0.137836 42.3242L3.12515 45.4099C3.26034 45.5496 3.46581 45.5934 3.64529 45.5179C3.82401 45.4428 3.9407 45.2648 3.9407 45.0673V43.8731H13.7071C13.9705 43.8731 14.1838 43.6551 14.1838 43.386C14.1838 43.1169 13.9705 42.8989 13.7071 42.8989H3.77876C3.34239 42.8989 2.98736 43.2617 2.98736 43.7075V43.8823L1.14723 41.9816L2.98736 40.0809V40.2556C2.98736 40.7017 3.34239 41.0645 3.77876 41.0645Z" fill="#044A75"/>
<path opacity="0.7" d="M45.073 3.23169L42.0857 0.146054C41.9498 0.0056417 41.7444 -0.0372225 41.5656 0.0381146C41.3869 0.113192 41.2702 0.291143 41.2702 0.488643V1.68287H39.0719C38.8086 1.68287 38.5952 1.90089 38.5952 2.16996C38.5952 2.43903 38.8086 2.65705 39.0719 2.65705H41.4322C41.8685 2.65705 42.2235 2.29427 42.2235 1.84841V1.67364L44.0636 3.57435L42.2235 5.47498V5.30028C42.2235 4.85436 41.8685 4.49158 41.4322 4.49158H31.5037C31.2404 4.49158 31.0271 4.7096 31.0271 4.97867C31.0271 5.24774 31.2404 5.46576 31.5037 5.46576H41.2702V6.65999C41.2702 6.85749 41.3869 7.03537 41.5656 7.11051C41.7454 7.18618 41.9507 7.14201 42.0857 7.00257L45.073 3.917C45.2568 3.72703 45.2568 3.42146 45.073 3.23169Z" fill="#044A75"/>
<path opacity="0.7" d="M31.538 2.68182H37.608C37.8902 2.68182 38.1189 2.48192 38.1189 2.23521C38.1189 1.98851 37.8902 1.7886 37.608 1.7886H31.538C31.2558 1.7886 31.0271 1.98851 31.0271 2.23521C31.0271 2.48192 31.2558 2.68182 31.538 2.68182Z" fill="#044A75"/>
</g>
<defs>
<clipPath id="clip0_1789_5570">
<rect width="45.2108" height="45.5542" fill="white"/>
</clipPath>
</defs>
</svg>
