<svg width="46" height="31" viewBox="0 0 46 31" fill="none" xmlns="http://www.w3.org/2000/svg">
<path d="M31.8515 27.7037C32.2173 27.7037 32.5137 27.405 32.5137 27.0364V26.649C33.512 26.3729 34.1516 25.5051 34.2944 24.6487C34.4816 23.5272 33.8775 22.5136 32.7914 22.1268C32.7 22.0942 32.607 22.0605 32.5137 22.0259V20.134C32.9679 20.2082 33.3056 20.3708 33.3166 20.3762C33.6429 20.5398 34.0395 20.4064 34.203 20.0778C34.3671 19.7484 34.235 19.3474 33.9081 19.1822C33.8713 19.1637 33.2919 18.8766 32.5137 18.7898V18.5515C32.5137 18.1829 32.2173 17.8842 31.8515 17.8842C31.4856 17.8842 31.1892 18.1829 31.1892 18.5515V18.8826C31.1662 18.889 31.1433 18.8949 31.1203 18.9019C30.3855 19.1248 29.8369 19.7562 29.6885 20.5495C29.552 21.2794 29.7884 21.9867 30.3055 22.3954C30.5374 22.5787 30.8183 22.7468 31.1892 22.9204V25.3688C30.9589 25.3251 30.769 25.2329 30.4829 25.0443C30.1768 24.8426 29.7664 24.929 29.5661 25.2374C29.3658 25.5458 29.4517 25.9594 29.7577 26.1612C30.3003 26.5188 30.6998 26.6624 31.1892 26.714V27.0365C31.1892 27.4049 31.4856 27.7037 31.8515 27.7037ZM32.9882 24.4274C32.9412 24.7088 32.7803 25.003 32.5137 25.1944V23.4572C33.0372 23.7283 33.0234 24.2163 32.9882 24.4274ZM31.123 21.3452C30.9984 21.2468 30.9462 21.0315 30.9901 20.7967C31.0157 20.6602 31.0805 20.5081 31.1892 20.385V21.3949C31.1663 21.3783 31.144 21.3619 31.123 21.3452Z" fill="#044A75"/>
<path d="M11.6949 9.01596C11.3578 8.87343 10.9694 9.03323 10.8279 9.3731L8.1447 15.8152C8.00315 16.155 8.16183 16.5461 8.49914 16.6887C8.83849 16.8321 9.22543 16.6694 9.3661 16.3316L12.0493 9.8895C12.1908 9.54971 12.0322 9.15868 11.6949 9.01596Z" fill="#044A75"/>
<path d="M7.75556 8.66534C6.73664 8.66534 5.90765 9.58737 5.90765 10.7209C5.90765 11.8542 6.73664 12.7763 7.75556 12.7763C8.77439 12.7763 9.60337 11.8543 9.60337 10.7209C9.60337 9.58737 8.77439 8.66534 7.75556 8.66534ZM7.75556 11.4417C7.47184 11.4417 7.23219 11.1116 7.23219 10.7208C7.23219 10.33 7.47184 9.99985 7.75556 9.99985C8.03918 9.99985 8.27884 10.33 8.27884 10.7208C8.27884 11.1116 8.03918 11.4417 7.75556 11.4417Z" fill="#044A75"/>
<path d="M12.3536 13.0685C11.3347 13.0685 10.5057 13.9906 10.5057 15.1241C10.5057 16.2576 11.3347 17.1796 12.3536 17.1796C13.3726 17.1796 14.2015 16.2576 14.2015 15.1241C14.2015 13.9906 13.3726 13.0685 12.3536 13.0685ZM12.3536 15.8449C12.0699 15.8449 11.8303 15.5148 11.8303 15.124C11.8303 14.7332 12.0699 14.403 12.3536 14.403C12.6374 14.403 12.877 14.7332 12.877 15.124C12.877 15.5148 12.6374 15.8449 12.3536 15.8449Z" fill="#044A75"/>
<path d="M40.8793 11.8312H35.4287C35.0629 11.8312 34.7665 12.1299 34.7665 12.4985C34.7665 12.8672 35.0629 13.1658 35.4287 13.1658H40.8793C41.2451 13.1658 41.5416 12.8672 41.5416 12.4985C41.5416 12.1299 41.2451 11.8312 40.8793 11.8312Z" fill="#044A75"/>
<path d="M41.5414 15.0753C41.5414 14.7066 41.245 14.408 40.8792 14.408H33.6626C33.2967 14.408 33.0003 14.7066 33.0003 15.0753C33.0003 15.4439 33.2967 15.7426 33.6626 15.7426H40.8792C41.245 15.7426 41.5414 15.4439 41.5414 15.0753Z" fill="#044A75"/>
<path d="M6.56946 23.0407H12.2545C12.6203 23.0407 12.9167 22.742 12.9167 22.3734C12.9167 22.0047 12.6203 21.7061 12.2545 21.7061H6.56946C6.20363 21.7061 5.9072 22.0047 5.9072 22.3734C5.9072 22.742 6.20372 23.0407 6.56946 23.0407Z" fill="#044A75"/>
<path d="M6.56992 25.9434H14.1976C14.5634 25.9434 14.8598 25.6447 14.8598 25.2761C14.8598 24.9075 14.5634 24.6088 14.1976 24.6088H6.56992C6.20409 24.6088 5.90765 24.9075 5.90765 25.2761C5.90765 25.6447 6.20417 25.9434 6.56992 25.9434Z" fill="#044A75"/>
<path d="M44.5481 22.3482C44.9139 22.3482 45.2103 22.0496 45.2103 21.6809V9.08298C45.2103 8.31746 44.6895 7.63842 43.9437 7.43164C43.1763 7.21891 42.5684 6.60651 42.3573 5.83324C42.1521 5.08178 41.4782 4.55684 40.7183 4.55684H37.1715C37.3846 4.17692 37.5069 3.73873 37.5069 3.27207C37.5069 1.82759 36.3405 0.652344 34.9069 0.652344H32.9411C32.1718 0.652344 31.4797 0.991064 31.0034 1.52784C30.5269 0.991064 29.8348 0.652344 29.0656 0.652344H27.0998C25.6662 0.652344 24.4998 1.82759 24.4998 3.27207C24.4998 3.73873 24.6221 4.17692 24.8353 4.55684H10.0798C9.71392 4.55684 9.41749 4.85552 9.41749 5.22413C9.41749 5.59275 9.71392 5.89143 10.0798 5.89143C10.546 5.89143 27.3353 5.89179 28.9942 5.89179L28.4657 6.28567C27.7587 6.81266 27.5104 7.74794 27.8616 8.56018C27.9314 8.7214 27.9222 8.90183 27.8362 9.05504C27.7503 9.20835 27.6019 9.30933 27.4287 9.33237L26.7069 9.42846C26.3443 9.47678 26.0892 9.81212 26.1371 10.1774C26.1849 10.5416 26.5165 10.8 26.8804 10.7516C27.2473 10.6469 28.3764 10.8049 28.9895 9.71149C29.282 9.19002 29.3134 8.57601 29.0759 8.02696C28.9727 7.78825 29.0457 7.5135 29.2535 7.3586L31.0034 6.05443L31.2937 6.27072C30.8348 6.97112 16.4812 28.8761 16.0231 29.5752H4.49145C4.32341 29.5752 4.17798 29.4565 4.12968 29.2796C3.79537 28.0551 2.83269 27.0852 1.61748 26.7483C1.44193 26.6996 1.32405 26.5532 1.32405 26.3838V9.08298C1.32405 8.91367 1.44193 8.76713 1.61748 8.71846C2.83278 8.38161 3.79537 7.41162 4.12968 6.18718C4.17798 6.0103 4.32333 5.89152 4.49145 5.89152H7.43183C7.79767 5.89152 8.0941 5.59284 8.0941 5.22422C8.0941 4.85561 7.79767 4.55692 7.43183 4.55692H4.49145C3.7317 4.55692 3.05778 5.08178 2.85256 5.83324C2.64143 6.60651 2.03365 7.219 1.26612 7.43173C0.520407 7.63833 -0.000488281 8.31737 -0.000488281 9.08298V26.3839C-0.000488281 27.1494 0.520407 27.8284 1.26621 28.0352C2.03365 28.2479 2.64152 28.8603 2.85265 29.6337C3.05778 30.3851 3.7317 30.91 4.49154 30.91H40.7185C41.4783 30.91 42.1522 30.3852 42.3574 29.6337C42.5686 28.8604 43.1764 28.2479 43.9439 28.0352C44.6896 27.8285 45.2105 27.1495 45.2105 26.3839V24.349C45.2105 23.9804 44.9141 23.6817 44.5482 23.6817C44.1824 23.6817 43.886 23.9804 43.886 24.349V26.3839C43.886 26.5532 43.7681 26.6997 43.5926 26.7484C42.3773 27.0852 41.4147 28.0552 41.0804 29.2797C41.0321 29.4566 40.8868 29.5753 40.7186 29.5753H17.6104C18.0479 28.9076 32.0099 7.60007 32.3601 7.06552L32.7534 7.3586C32.9612 7.5135 33.0342 7.78834 32.931 8.02696C32.6935 8.57593 32.7249 9.18993 33.0173 9.71149C33.3097 10.233 33.8153 10.5771 34.4047 10.6556C35.1519 10.7532 35.1372 10.7575 35.2141 10.7575C35.5411 10.7575 35.8257 10.5132 35.8698 10.1775C35.9176 9.8122 35.6625 9.47687 35.3 9.42855L34.5782 9.33246C34.405 9.30942 34.2564 9.20826 34.1706 9.05513C34.0848 8.90201 34.0755 8.72157 34.1452 8.56027C34.4966 7.74803 34.2482 6.81275 33.5412 6.28576L33.0911 5.95033L33.1293 5.89197C34.3784 5.89188 40.7019 5.89161 40.7185 5.89161C40.8866 5.89161 41.032 6.01039 41.0803 6.18727C41.4146 7.4118 42.3773 8.3817 43.5925 8.71855C43.768 8.76722 43.8859 8.91367 43.8859 9.08307V21.6809C43.8858 22.0495 44.1822 22.3482 44.5481 22.3482ZM32.9412 1.98694H34.907C35.6104 1.98694 36.1825 2.5634 36.1825 3.27207C36.1825 3.97842 35.614 4.5531 34.9138 4.55684C33.7452 4.55684 32.8431 4.55684 31.6657 4.55684V3.27207C31.6656 2.5634 32.2378 1.98694 32.9412 1.98694ZM25.8243 3.27207C25.8243 2.5634 26.3964 1.98694 27.0998 1.98694H29.0656C29.769 1.98694 30.3411 2.5634 30.3411 3.27207V4.55684H27.093C26.3928 4.55319 25.8243 3.97842 25.8243 3.27207Z" fill="#044A75"/>
</svg>
