<svg width="20" height="14" viewBox="0 0 20 14" fill="none" xmlns="http://www.w3.org/2000/svg">
<path d="M16.2989 0H2.85895C2.10003 0.00195095 1.37286 0.304798 0.836918 0.842125C0.300972 1.37945 -2.50764e-06 2.1074 0 2.86632V11.1337C-2.50764e-06 11.8926 0.300972 12.6205 0.836918 13.1579C1.37286 13.6952 2.10003 13.998 2.85895 14H16.2989C17.0579 13.998 17.785 13.6952 18.321 13.1579C18.8569 12.6205 19.1579 11.8926 19.1579 11.1337V2.86632C19.1579 2.1074 18.8569 1.37945 18.321 0.842125C17.785 0.304798 17.0579 0.00195095 16.2989 0ZM16.2989 1.47368H16.4168L9.57895 6.45474L2.74105 1.47368H2.85895H16.2989ZM17.6842 11.1337C17.6842 11.5018 17.5385 11.8549 17.2789 12.1158C17.0193 12.3768 16.667 12.5244 16.2989 12.5263H2.85895C2.49088 12.5244 2.13855 12.3768 1.87897 12.1158C1.61939 11.8549 1.47368 11.5018 1.47368 11.1337V2.86632C1.47537 2.71844 1.50024 2.57175 1.54737 2.43158L9.15158 7.96526C9.27777 8.05748 9.43002 8.10718 9.58632 8.10718C9.74261 8.10718 9.89486 8.05748 10.0211 7.96526L17.6179 2.43158C17.665 2.57175 17.6899 2.71844 17.6916 2.86632L17.6842 11.1337Z" fill="#044A75"/>
</svg>
