<svg width="18" height="18" viewBox="0 0 18 18" fill="none" xmlns="http://www.w3.org/2000/svg">
<path d="M15.5049 6.28933C15.3679 6.28918 15.2312 6.27977 15.0955 6.26117C14.2961 6.15393 13.5092 5.74817 12.8804 5.11943C12.2517 4.49024 11.8459 3.70376 11.7382 2.90387C11.6234 2.04946 11.8692 1.24734 12.4134 0.703053C12.9577 0.15877 13.7598 -0.0874527 14.6143 0.0278387C15.4141 0.135533 16.2011 0.540841 16.8298 1.17003C17.4586 1.79922 17.8643 2.5857 17.972 3.38514C18.0869 4.24 17.8406 5.04212 17.2968 5.58641C16.8405 6.04221 16.2029 6.28933 15.5049 6.28933ZM13.8282 4.17118C14.2443 4.58766 14.7716 4.86516 15.2747 4.93085C15.7176 4.99073 16.0992 4.88617 16.3472 4.63637C16.5952 4.38657 16.7016 4.00539 16.6417 3.56389C16.5742 3.06072 16.2967 2.53342 15.882 2.11738C15.0727 1.30811 13.918 1.09451 13.3612 1.65086C12.8045 2.2072 13.0185 3.36191 13.8282 4.17118Z" fill="#044A75"/>
<path d="M5.92826 15.8654C5.7915 15.8654 5.6549 15.8561 5.51938 15.8377C4.71949 15.73 3.93256 15.3247 3.30382 14.6955C2.67508 14.0663 2.26932 13.2799 2.16163 12.4804C2.04678 11.6256 2.29301 10.8234 2.83684 10.2792C2.96259 10.1534 3.13314 10.0828 3.31097 10.0828C3.4888 10.0828 3.65935 10.1534 3.78509 10.2792C3.91084 10.4049 3.98148 10.5754 3.98148 10.7533C3.98148 10.9311 3.91084 11.1017 3.78509 11.2274C3.5353 11.4768 3.43073 11.8584 3.49016 12.2999C3.55809 12.8031 3.83559 13.3304 4.24983 13.7464C5.06313 14.5588 6.2156 14.771 6.77239 14.2147C6.83423 14.1507 6.90819 14.0996 6.98997 14.0645C7.07175 14.0294 7.15971 14.0109 7.24871 14.0101C7.33771 14.0093 7.42597 14.0263 7.50835 14.06C7.59073 14.0937 7.66557 14.1435 7.72851 14.2064C7.79144 14.2693 7.84121 14.3442 7.87492 14.4265C7.90862 14.5089 7.92558 14.5972 7.92481 14.6862C7.92403 14.7752 7.90554 14.8631 7.87041 14.9449C7.83528 15.0267 7.78422 15.1007 7.7202 15.1625C7.26395 15.6188 6.62716 15.8654 5.92826 15.8654Z" fill="#044A75"/>
<path d="M0.670135 18.0007C0.569788 18.0007 0.470728 17.9782 0.380262 17.9347C0.289796 17.8913 0.210233 17.8282 0.147443 17.7499C0.0846526 17.6716 0.0402376 17.5802 0.0174744 17.4825C-0.00528876 17.3848 -0.00581917 17.2832 0.0159225 17.1852C0.027541 17.1329 0.304598 15.8893 0.68935 14.5174C1.41149 11.9435 1.84718 11.2701 2.14613 10.9711L12.4138 0.703902C12.4756 0.639882 12.5496 0.588817 12.6314 0.553687C12.7131 0.518557 12.8011 0.500066 12.8901 0.499293C12.9791 0.498519 13.0674 0.515479 13.1497 0.549182C13.2321 0.582886 13.3069 0.632658 13.3699 0.695594C13.4328 0.75853 13.4826 0.83337 13.5163 0.915748C13.55 0.998125 13.567 1.08639 13.5662 1.17539C13.5654 1.26439 13.5469 1.35235 13.5118 1.43413C13.4767 1.51591 13.4256 1.58987 13.3616 1.65171L3.09438 11.9193C3.05372 11.9596 2.68014 12.3854 1.9799 14.8798C1.82305 15.4389 1.68273 15.9831 1.57325 16.4278C2.02012 16.3174 2.56574 16.1771 3.12611 16.0193C5.61605 15.3204 6.04146 14.9469 6.08168 14.9066L16.3489 4.63945C16.4746 4.51371 16.6451 4.44304 16.8228 4.443C17.0006 4.44296 17.1712 4.51354 17.2969 4.63923C17.4226 4.76491 17.4933 4.93541 17.4934 5.1132C17.4934 5.29099 17.4228 5.46151 17.2971 5.58726L7.02949 15.8558C6.73053 16.1547 6.05755 16.5904 3.48316 17.313C2.11351 17.6973 0.867649 17.9744 0.815366 17.986C0.767637 17.9962 0.718938 18.0011 0.670135 18.0007Z" fill="#044A75"/>
<path d="M14.9678 3.92711C14.8797 3.92709 14.7925 3.90972 14.7111 3.87598C14.6298 3.84224 14.5559 3.7928 14.4936 3.73049L14.2702 3.50706C14.1481 3.38064 14.0805 3.21132 14.0821 3.03557C14.0836 2.85982 14.1541 2.6917 14.2784 2.56742C14.4026 2.44314 14.5708 2.37265 14.7465 2.37112C14.9223 2.36959 15.0916 2.43715 15.218 2.55925L15.4414 2.78269C15.5352 2.8764 15.5991 2.99583 15.625 3.12585C15.6509 3.25587 15.6377 3.39066 15.587 3.51316C15.5362 3.63566 15.4504 3.74037 15.3401 3.81406C15.2299 3.88774 15.1003 3.92708 14.9678 3.92711Z" fill="#044A75"/>
</svg>
