<svg width="46" height="46" viewBox="0 0 46 46" fill="none" xmlns="http://www.w3.org/2000/svg">
<path d="M38.9724 20.4985C38.9724 20.867 39.2688 21.1658 39.6347 21.1658C40.0005 21.1658 40.2969 20.867 40.2969 20.4985C40.2969 19.2977 39.3698 18.4021 38.2842 18.4624V18.0933C38.2842 17.7248 37.9878 17.426 37.622 17.426C37.2561 17.426 36.9597 17.7248 36.9597 18.0933V18.4624C35.8673 18.3877 34.9447 19.3176 34.9471 20.4985V21.411C34.9411 22.5777 35.8672 23.5317 36.9597 23.4472V25.7628C36.5832 25.8084 36.2717 25.5244 36.2717 25.0612C36.2717 24.6927 35.9752 24.3939 35.6094 24.3939C35.2436 24.3939 34.9471 24.6927 34.9471 25.0612C34.9471 26.2278 35.8672 27.182 36.9597 27.0974V27.4664C36.9597 27.835 37.2561 28.1337 37.622 28.1337C37.9878 28.1337 38.2842 27.835 38.2842 27.4664V27.0974C39.3652 27.1582 40.3001 26.2524 40.2969 25.0612V24.1486C40.2969 23.6194 40.1118 23.1181 39.7759 22.7373C39.3817 22.2904 38.8527 22.0837 38.2842 22.1125V19.797C38.6484 19.7337 38.9724 20.0482 38.9724 20.4985ZM36.9598 22.1126C36.5833 22.1583 36.2719 21.8741 36.2717 21.411V20.4985C36.2701 20.006 36.5767 19.7678 36.9598 19.797V22.1126ZM38.786 23.624C38.9062 23.7603 38.9724 23.9466 38.9724 24.1486V25.0612C38.9664 25.4995 38.653 25.833 38.2842 25.7628V23.4472C38.4739 23.4033 38.7053 23.5326 38.786 23.624ZM37.6221 15.1337C33.4378 15.1337 30.0335 18.5638 30.0335 22.7799C30.0335 26.8031 33.1341 30.1081 37.0536 30.4024C37.2522 31.8301 37.2898 33.7303 36.7269 35.8223C36.6184 35.5972 36.48 35.3851 36.3117 35.192C35.819 34.6256 35.1368 34.2867 34.3909 34.2374L32.6976 34.1254C32.5219 34.1139 32.3496 34.1729 32.2176 34.2896C32.0855 34.4063 32.0049 34.5711 31.9933 34.7476L31.8822 36.4537C31.7812 38.0051 32.9517 39.3501 34.4915 39.452L35.1094 39.4928C33.4134 42.1472 31.1318 43.6109 29.9849 44.2225H23.2675V39.8079H24.3021C25.8452 39.8079 27.1005 38.543 27.1005 36.9882V35.2784C27.1005 34.9099 26.8041 34.6111 26.4382 34.6111H24.7413C24.2007 34.6111 23.6958 34.7668 23.2675 35.0354V31.8003H24.3021C25.8452 31.8003 27.1005 30.5354 27.1005 28.9807V27.2709C27.1005 26.9023 26.8041 26.6036 26.4382 26.6036H24.7413C24.2007 26.6036 23.6958 26.7593 23.2675 27.0278V23.7927H24.3021C25.8452 23.7927 27.1005 22.5278 27.1005 20.9731V19.2633C27.1005 18.8948 26.8041 18.596 26.4382 18.596H24.7413C24.2007 18.596 23.6958 18.7517 23.2675 19.0202V17.2145C27.6757 16.8728 31.1589 13.1493 31.1589 8.6215C31.1589 3.8691 27.3217 0.0027771 22.6052 0.0027771C17.8887 0.0027771 14.0515 3.8691 14.0515 8.62142C14.0515 13.1493 17.5347 16.8727 21.9429 17.2144V21.6893C21.5146 21.4208 21.0096 21.2651 20.4691 21.2651H18.7722C18.4063 21.2651 18.1099 21.5639 18.1099 21.9324V23.6422C18.1099 25.197 19.3653 26.4618 20.9083 26.4618H21.9429V29.6969C21.5146 29.4284 21.0096 29.2727 20.4691 29.2727H18.7722C18.4063 29.2727 18.1099 29.5714 18.1099 29.94V31.6498C18.1099 33.2046 19.3653 34.4694 20.9083 34.4694H21.9429V37.7045C21.5146 37.436 21.0096 37.2803 20.4691 37.2803H18.7722C18.4063 37.2803 18.1099 37.579 18.1099 37.9475V39.6573C18.1099 41.2121 19.3653 42.477 20.9083 42.477H21.9429V44.2224H15.2253C14.0784 43.6108 11.7968 42.1471 10.1008 39.4927L10.7187 39.4519C12.2585 39.35 13.4289 38.005 13.328 36.4537L13.2169 34.7475C13.2053 34.5709 13.1247 34.4062 12.9926 34.2895C12.8605 34.1729 12.6882 34.1138 12.5126 34.1254L10.8193 34.2373C10.0734 34.2866 9.39118 34.6256 8.89846 35.1919C8.73033 35.3851 8.59178 35.5972 8.48326 35.8223C7.92042 33.7302 7.95804 31.8299 8.15663 30.4023C12.0762 30.108 15.1767 26.8031 15.1767 22.7798C15.1767 18.5637 11.7724 15.1336 7.58814 15.1336C6.62785 15.1336 5.69158 15.3121 4.80538 15.6643C4.46506 15.7994 4.29799 16.187 4.43212 16.5298C4.56643 16.8727 4.95125 17.041 5.29122 16.9058C6.02201 16.6155 6.79483 16.4682 7.58814 16.4682C11.0421 16.4682 13.8521 19.2996 13.8521 22.7798C13.8521 26.26 11.0422 29.0914 7.58814 29.0914C4.1341 29.0914 1.32432 26.2601 1.32432 22.7799C1.32432 21.204 1.90385 19.695 2.95624 18.5309C3.2026 18.2584 3.183 17.8364 2.9127 17.5882C2.64232 17.3401 2.2235 17.3597 1.97714 17.6322C0.702055 19.0426 -0.000213623 20.8707 -0.000213623 22.7799C-0.000213623 26.7355 2.9965 29.9991 6.82265 30.3872C6.73593 31.0662 6.68445 31.8363 6.70397 32.6742C6.50794 32.5363 6.29336 32.4225 6.06298 32.3372C5.36142 32.0774 4.60122 32.1085 3.92297 32.4245L2.38289 33.1423C2.05087 33.297 1.90632 33.6936 2.05988 34.0281L2.77213 35.5799C3.08595 36.2635 3.64517 36.783 4.34674 37.0428C4.66145 37.1593 4.98799 37.2173 5.31356 37.2173C5.71383 37.2173 6.11278 37.1297 6.48683 36.9553L7.31829 36.5678C7.45975 37.0401 7.62885 37.5203 7.83115 38.0061C8.88053 40.5254 11.0972 43.0292 12.7352 44.2222H4.90057C4.53473 44.2222 4.2383 44.521 4.2383 44.8895C4.2383 45.258 4.53473 45.5568 4.90057 45.5568H40.3098C40.6757 45.5568 40.9721 45.258 40.9721 44.8895C40.9721 44.521 40.6757 44.2222 40.3098 44.2222H32.4752C34.1665 43.0211 36.313 40.5658 37.3792 38.0061C37.5816 37.5203 37.7506 37.0402 37.8921 36.5678L38.7236 36.9553C39.0977 37.1296 39.4966 37.2173 39.8968 37.2173C40.2224 37.2173 40.5489 37.1593 40.8637 37.0428C41.5652 36.783 42.1244 36.2635 42.4382 35.5799L43.1505 34.0281C43.3041 33.6937 43.1595 33.297 42.8275 33.1423L41.2874 32.4245C40.609 32.1084 39.8491 32.0774 39.1474 32.3372C38.917 32.4225 38.7024 32.5363 38.5064 32.6742C38.5259 31.8363 38.4744 31.0662 38.3877 30.3872C40.4771 30.1785 42.3688 29.1198 43.6619 27.4096C43.8836 27.1164 43.8273 26.6978 43.5364 26.4744C43.2453 26.2509 42.8299 26.3077 42.6082 26.6008C41.4115 28.1836 39.594 29.0914 37.622 29.0914C34.168 29.0914 31.358 26.2601 31.358 22.7799C31.358 19.2997 34.1679 16.4683 37.622 16.4683C41.076 16.4683 43.8861 19.2997 43.8861 22.7799C43.8861 23.2085 43.8433 23.6365 43.759 24.052C43.6857 24.4131 43.9167 24.7657 44.2751 24.8395C44.6335 24.9137 44.9834 24.6805 45.0567 24.3195C45.1588 23.816 45.2106 23.2981 45.2106 22.7799C45.2106 18.5638 41.8064 15.1337 37.6221 15.1337ZM5.93079 35.7442C5.57352 35.9108 5.17325 35.9271 4.80361 35.7903C4.43398 35.6535 4.13949 35.3799 3.97419 35.0198L3.53992 34.0737L4.47892 33.636C4.83637 33.4694 5.23673 33.4532 5.6061 33.59C5.97565 33.7268 6.27023 34.0004 6.43553 34.3605L6.8698 35.3066L5.93079 35.7442ZM9.53194 37.1482C9.50615 36.7524 9.6349 36.3701 9.89433 36.0719C10.1539 35.7736 10.5132 35.5951 10.9061 35.5691L11.9384 35.5009L12.0062 36.5411C12.032 36.937 11.9032 37.3192 11.6438 37.6175C11.3843 37.9158 11.0249 38.0943 10.632 38.1202L9.59967 38.1885L9.53194 37.1482ZM21.9429 41.1424H20.9083C20.0956 41.1424 19.4344 40.4762 19.4344 39.6573V38.6148H20.4691C21.2818 38.6148 21.9429 39.2811 21.9429 40.1V41.1424ZM21.9429 33.1348H20.9083C20.0956 33.1348 19.4344 32.4686 19.4344 31.6498V30.6073H20.4691C21.2818 30.6073 21.9429 31.2735 21.9429 32.0924V33.1348ZM21.9429 25.1272H20.9083C20.0956 25.1272 19.4344 24.461 19.4344 23.6422V22.5997H20.4691C21.2818 22.5997 21.9429 23.2659 21.9429 24.0848V25.1272ZM24.7413 35.9457H25.776V36.9882C25.776 37.8071 25.1148 38.4732 24.3021 38.4732H23.2675V37.4308C23.2675 36.6118 23.9286 35.9457 24.7413 35.9457ZM24.7413 27.9381H25.776V28.9806C25.776 29.7995 25.1148 30.4656 24.3021 30.4656H23.2675V29.4232C23.2675 28.6042 23.9286 27.9381 24.7413 27.9381ZM24.7413 19.9305H25.776V20.973C25.776 21.7919 25.1148 22.4581 24.3021 22.4581H23.2675V21.4156C23.2675 20.5967 23.9286 19.9305 24.7413 19.9305ZM21.9429 7.95412H21.688C21.2945 7.95412 20.9744 7.55383 20.9744 7.06181V6.02216C20.9744 5.53014 21.2945 5.12994 21.6879 5.12994H21.9429V7.95412ZM22.6052 2.61449C22.2394 2.61449 21.9429 2.91326 21.9429 3.28179V3.79525H21.6879C20.5641 3.79525 19.6499 4.79424 19.6499 6.02207V7.06181C19.6499 8.28972 20.5642 9.28871 21.688 9.28871H21.9429V12.113H21.6879C21.2945 12.113 20.9744 11.7127 20.9744 11.2208C20.9744 10.8522 20.678 10.5535 20.3122 10.5535C19.9463 10.5535 19.6499 10.8522 19.6499 11.2208C19.6499 12.4487 20.5642 13.4476 21.6879 13.4476H21.9429V15.8737C18.2661 15.5354 15.3761 12.4128 15.3761 8.6215C15.3761 4.605 18.619 1.33737 22.6052 1.33737C26.5914 1.33737 29.8343 4.605 29.8343 8.62142C29.8343 12.4127 26.9442 15.5354 23.2675 15.8736V13.4475H23.5225C24.6463 13.4475 25.5605 12.4485 25.5605 11.2207V10.1808C25.5605 9.60065 25.358 9.0516 24.9902 8.63476C24.6029 8.19577 24.0817 7.95403 23.5224 7.95403H23.2675V5.12985H23.5225C23.9159 5.12985 24.236 5.53014 24.236 6.02207C24.236 6.3906 24.5324 6.68937 24.8982 6.68937C25.2641 6.68937 25.5605 6.3906 25.5605 6.02207C25.5605 4.79415 24.6462 3.79525 23.5225 3.79525H23.2675V3.28179C23.2675 2.91326 22.971 2.61449 22.6052 2.61449ZM23.2675 12.113V9.28871H23.5224C23.6981 9.28871 23.8678 9.37137 24.0003 9.52147C24.1523 9.69381 24.236 9.92799 24.236 10.1809V11.2208C24.236 11.7128 23.9159 12.113 23.5225 12.113H23.2675ZM35.6784 37.1482L35.6107 38.1884L34.5784 38.1202C34.1855 38.0942 33.8261 37.9156 33.5666 37.6174C33.3072 37.3191 33.1784 36.9369 33.2042 36.541L33.2719 35.5008L34.3043 35.569C34.6971 35.595 35.0565 35.7736 35.3161 36.0718C35.5755 36.3701 35.7042 36.7524 35.6784 37.1482ZM38.7749 34.3604C38.9402 34.0003 39.2347 33.7268 39.6043 33.5899C39.9739 33.4531 40.374 33.4694 40.7315 33.6359L41.6705 34.0736L41.2361 35.0197C41.0709 35.3798 40.7764 35.6534 40.4068 35.7902C40.0374 35.9271 39.637 35.9107 39.2796 35.7441L38.3406 35.3066L38.7749 34.3604ZM6.238 25.0612C6.238 24.6927 5.94156 24.3939 5.57573 24.3939C5.20989 24.3939 4.91346 24.6927 4.91346 25.0612C4.91346 26.2278 5.83366 27.182 6.92614 27.0974V27.4664C6.92614 27.835 7.22257 28.1337 7.5884 28.1337C7.95424 28.1337 8.25067 27.835 8.25067 27.4664V27.0974C9.33202 27.1582 10.2663 26.2524 10.2633 25.0612V24.1486C10.2633 23.6194 10.0782 23.1181 9.74228 22.7373C9.34827 22.2907 8.81899 22.0834 8.25067 22.1125V19.797C8.61501 19.7338 8.93872 20.0482 8.93872 20.4985C8.93872 20.867 9.23515 21.1658 9.60099 21.1658C9.96683 21.1658 10.2633 20.867 10.2633 20.4985C10.2633 19.2984 9.33661 18.4017 8.25067 18.4624V18.0933C8.25067 17.7248 7.95424 17.426 7.5884 17.426C7.22257 17.426 6.92614 17.7248 6.92614 18.0933V18.4624C5.83375 18.388 4.91125 19.3173 4.91346 20.4985V21.411C4.90772 22.5777 5.83366 23.5317 6.92614 23.4472V25.7628C6.55094 25.8105 6.238 25.523 6.238 25.0612ZM8.25058 23.4472C8.44017 23.4034 8.67152 23.5327 8.75223 23.6241C8.87241 23.7604 8.93863 23.9467 8.93863 24.1487V25.0613C8.93281 25.4995 8.61933 25.833 8.25058 25.7629V23.4472ZM6.238 21.411V20.4985C6.23702 20.0601 6.56357 19.727 6.92614 19.797V22.1126C6.55094 22.1604 6.23826 21.8727 6.238 21.411Z" fill="#044A75"/>
</svg>
