<svg width="20" height="20" viewBox="0 0 20 20" fill="none" xmlns="http://www.w3.org/2000/svg">
<path d="M19.2308 10.0003C19.2308 4.91053 15.0902 0.769531 10 0.769531C4.90988 0.769531 0.769257 4.91053 0.769257 10.0003C0.769257 12.6031 1.85634 14.9531 3.59514 16.6328C3.63584 16.6858 3.68406 16.7288 3.74049 16.765C5.3876 18.2902 7.58332 19.2311 10 19.2311C12.4167 19.2311 14.6125 18.2902 16.2596 16.765C16.316 16.7288 16.3642 16.6858 16.4049 16.6328C18.1437 14.9531 19.2308 12.6031 19.2308 10.0003ZM10 1.92338C14.4539 1.92338 18.077 5.5468 18.077 10.0003C18.077 11.8887 17.4206 13.624 16.3306 15.001C15.8302 13.3872 14.4016 12.1239 12.4628 11.5427C13.5194 10.778 14.2105 9.53911 14.2105 8.1392C14.2105 5.82061 12.322 3.93435 10 3.93435C7.67806 3.93435 5.78954 5.82061 5.78954 8.1392C5.78954 9.53911 6.48064 10.778 7.53726 11.5427C5.59841 12.1239 4.16985 13.3872 3.66946 15.001C2.57947 13.624 1.9231 11.8887 1.9231 10.0003C1.9231 5.5468 5.54615 1.92338 10 1.92338ZM6.94339 8.1392C6.94339 6.45688 8.31433 5.08819 10 5.08819C11.6857 5.08819 13.0567 6.45688 13.0567 8.1392C13.0567 9.82152 11.6857 11.1902 10 11.1902C8.31433 11.1902 6.94339 9.82152 6.94339 8.1392ZM4.63907 16.0249C4.81251 13.9096 7.05569 12.3441 10 12.3441C12.9444 12.3441 15.1875 13.9096 15.361 16.0249C13.9332 17.2969 12.0583 18.0772 10 18.0772C7.94178 18.0772 6.06687 17.2969 4.63907 16.0249Z" fill="#044A75"/>
</svg>
