<?xml version="1.0" standalone="no"?>
<!DOCTYPE svg PUBLIC "-//W3C//DTD SVG 20010904//EN"
 "http://www.w3.org/TR/2001/REC-SVG-20010904/DTD/svg10.dtd">
<svg version="1.0" xmlns="http://www.w3.org/2000/svg"
 width="1162.000000pt" height="1280.000000pt" viewBox="0 0 1162.000000 1280.000000"
 preserveAspectRatio="xMidYMid meet">
<g transform="translate(0.000000,1280.000000) scale(0.100000,-0.100000)"
fill="#000000" stroke="none">
<path d="M11595 12789 c-11 -5 -319 -79 -685 -164 -593 -139 -989 -228 -2000
-451 -457 -101 -3738 -830 -4365 -970 -308 -69 -597 -138 -643 -153 -202 -70
-318 -190 -379 -396 -17 -57 -18 -248 -21 -3992 -2 -3406 -4 -3933 -17 -3933
-7 0 -29 9 -47 19 -117 69 -393 149 -601 176 -152 19 -435 19 -602 0 -813 -96
-1594 -536 -1985 -1119 -70 -104 -142 -246 -175 -345 -34 -103 -75 -302 -75
-366 0 -64 41 -263 70 -335 161 -410 573 -668 1185 -741 222 -26 294 -24 600
18 506 68 1000 270 1413 577 138 103 387 352 472 473 129 184 205 342 250 518
21 80 21 82 20 3247 -1 2340 2 3191 11 3255 13 98 52 216 94 283 94 149 271
267 520 345 99 31 5757 1295 5798 1295 16 0 17 -173 17 -2700 0 -2298 -2
-2700 -14 -2700 -8 0 -49 17 -92 39 -148 72 -316 123 -529 158 -152 24 -520
24 -689 -1 -250 -36 -443 -85 -666 -168 -619 -230 -1125 -638 -1364 -1098
-104 -202 -146 -362 -146 -562 0 -266 82 -467 270 -659 222 -227 538 -363 949
-410 172 -19 524 -7 706 25 596 104 1146 371 1537 745 276 263 432 510 516
816 l27 100 2 3895 c2 2676 6 3929 13 4002 43 432 260 718 593 781 l57 11 0
248 c0 136 -1 248 -2 247 -2 0 -12 -5 -23 -10z" fill="#B199F6"/>
</g>
</svg>
