<!-- Generated by IcoMoon.io -->
<svg version="1.1" xmlns="http://www.w3.org/2000/svg" width="13" height="10" viewBox="0 0 13 10">
<title>price-tags</title>
<path d="M12.031 0h-3.75c-0.258 0-0.618 0.149-0.8 0.331l-4.65 4.65c-0.182 0.182-0.182 0.481 0 0.663l4.025 4.025c0.182 0.182 0.481 0.182 0.663 0l4.65-4.65c0.182-0.182 0.331-0.542 0.331-0.8v-3.75c0-0.258-0.211-0.469-0.469-0.469zM9.688 3.75c-0.518 0-0.938-0.42-0.938-0.938s0.42-0.938 0.938-0.938 0.938 0.42 0.938 0.938-0.42 0.938-0.938 0.938z" fill="#B199F6"></path>
<path d="M1.25 5.313l5.313-5.313h-0.781c-0.258 0-0.618 0.149-0.8 0.331l-4.65 4.65c-0.182 0.182-0.182 0.481 0 0.663l4.025 4.025c0.182 0.182 0.481 0.182 0.663 0l0.294-0.294-4.063-4.063z" fill="#B199F6"></path>
</svg>
