<!-- Generated by IcoMoon.io -->
<svg version="1.1" xmlns="http://www.w3.org/2000/svg" width="10" height="10" viewBox="0 0 10 10">
<title>telegram</title>
<path d="M6.635 7.294l0.82-3.867c0.073-0.34-0.123-0.474-0.346-0.391l-4.821 1.858c-0.329 0.128-0.324 0.313-0.056 0.396l1.233 0.385 2.863-1.802c0.134-0.089 0.257-0.039 0.156 0.050l-2.316 2.093-0.089 1.272c0.128 0 0.184-0.056 0.251-0.123l0.603-0.58 1.25 0.921c0.229 0.128 0.391 0.061 0.452-0.212zM10 5c0 2.762-2.238 5-5 5s-5-2.238-5-5 2.238-5 5-5 5 2.238 5 5z"></path>
</svg>
