<!-- Generated by IcoMoon.io -->
<svg version="1.1" xmlns="http://www.w3.org/2000/svg" width="10" height="10" viewBox="0 0 10 10">
<title>twitter</title>
<path d="M10 2.211c-0.367 0.164-0.764 0.273-1.178 0.322 0.424-0.254 0.748-0.656 0.902-1.135-0.396 0.234-0.836 0.406-1.303 0.498-0.375-0.398-0.908-0.646-1.498-0.646-1.133 0-2.051 0.918-2.051 2.051 0 0.16 0.018 0.316 0.053 0.467-1.705-0.086-3.217-0.902-4.229-2.145-0.176 0.303-0.277 0.656-0.277 1.031 0 0.711 0.361 1.34 0.912 1.707-0.336-0.010-0.652-0.104-0.93-0.256 0 0.008 0 0.018 0 0.025 0 0.994 0.707 1.824 1.646 2.012-0.172 0.047-0.354 0.072-0.541 0.072-0.133 0-0.26-0.014-0.387-0.037 0.262 0.814 1.020 1.408 1.916 1.426-0.703 0.551-1.586 0.879-2.549 0.879-0.166 0-0.328-0.010-0.49-0.029 0.91 0.584 1.988 0.922 3.146 0.922 3.773 0 5.838-3.127 5.838-5.838 0-0.090-0.002-0.178-0.006-0.266 0.4-0.287 0.748-0.648 1.023-1.061z"></path>
</svg>
