<svg width="60" height="43" viewBox="0 0 60 43" fill="none" xmlns="http://www.w3.org/2000/svg">
<path fill-rule="evenodd" clip-rule="evenodd" d="M53.4757 2.18994C56.0456 2.87838 58.0721 4.89361 58.7638 7.45021C60.0492 12.1199 59.9998 21.8537 59.9998 21.8537C59.9998 21.8537 59.9998 31.5378 58.7643 36.208C58.0721 38.7642 56.0461 40.7799 53.4757 41.4678C48.7805 42.6972 29.9999 42.6972 29.9999 42.6972C29.9999 42.6972 11.2683 42.6972 6.52402 41.4191C3.95369 40.7307 1.92764 38.715 1.2355 36.1588C0 31.5378 0 21.8045 0 21.8045C0 21.8045 0 12.1199 1.2355 7.45021C1.92718 4.89407 4.00313 2.8292 6.52356 2.14122C11.2188 0.911865 29.9994 0.911865 29.9994 0.911865C29.9994 0.911865 48.7805 0.911865 53.4757 2.18994ZM39.641 21.805L24.0234 30.752V12.858L39.641 21.805Z" fill="#EB5757"/>
</svg>
