<svg width="110" height="77" viewBox="0 0 110 77" fill="none" xmlns="http://www.w3.org/2000/svg">
<path fill-rule="evenodd" clip-rule="evenodd" d="M78.1289 6.41164C88.7578 6.41164 97.4492 15.103 97.4492 25.732C97.4492 36.3882 88.7578 45.0835 78.1289 45.0835C67.4727 45.0835 58.7813 36.3882 58.7813 25.732C58.7813 15.103 67.4727 6.41164 78.1289 6.41164ZM78.1289 4.81399C89.6563 4.81399 99.0469 14.2359 99.0469 25.732C99.0469 37.232 89.6563 46.6538 78.1289 46.6538C66.6328 46.6538 57.211 37.232 57.211 25.732C57.211 14.2359 66.6328 4.81399 78.1289 4.81399ZM74.793 13.4234H82.0547C81.8594 20.0132 80.7383 25.5366 78.4922 29.7984C75.8867 24.6968 74.8203 19.1968 74.793 13.4234ZM69.8867 37.5093C65.4805 37.1734 63.4649 33.0523 62.7344 29.4351H60.8008L64.8086 23.6851L69.5196 29.4351H67.5313C67.418 32.1538 67.6992 34.7359 70.8086 35.5484C73.8946 35.939 75.9141 34.5093 77.3164 32.0406C73.7266 24.9468 72.1289 21.6656 70.7266 13.5054L73.7813 10.0288H83.4571L86.1485 13.5054C85.6172 19.4507 83.1485 25.2554 80.0078 31.146L79.418 32.0718C80.5977 34.9312 84.0469 36.8374 87.0196 35.0718C89.4297 33.6968 89.5703 31.6226 89.5977 29.4351H87.3282L91.8985 23.6031L95.9649 29.4351H94.168C94.0313 32.7984 92.543 34.7632 90.1602 36.6695C85.0274 39.0796 81.9453 37.0054 78.4961 33.7827C77.2305 35.0718 74.6797 37.9585 69.8867 37.5093ZM74.625 40.2593L77.1758 38.939L78.4922 36.0523L79.8672 38.939L82.7852 40.2593L79.8672 41.6616L78.4922 44.6343L77.1758 41.6616L74.625 40.2593ZM54.0391 37.482H54.8828L54.4336 35.0991L54.0391 37.482ZM57.8828 41.6031H55.1914L55.1055 39.8101H53.7344L53.6485 41.6031H51.0117L52.9453 25.5366H55.668L57.8828 41.6031ZM49.668 25.5366V41.6031H47.3946V25.5366H49.668ZM39.7774 34.564V41.6031H37.4297V25.5366H40.2383L41.5352 31.5093L42.8946 25.5366H45.7032V41.6031H43.3555V34.564L41.6289 41.6031L39.7774 34.564ZM35.3633 32.3218V34.0327H33.5117V39.8648H35.3633V41.6031H31.2422V25.5366H35.3633V27.3023H33.5117V32.3218H35.3633ZM25.7461 25.5366V32.0718H26.9532V25.5366H29.3086V41.6031H26.9532V34.146H25.7461V41.6031H23.4453V25.5366H25.7461ZM19.6602 25.4234C20.0274 25.4234 20.418 25.564 20.6993 25.8452C21.0625 26.2085 21.2578 26.5445 21.2578 26.8843L21.3164 26.9663V40.2866C21.3164 40.3726 21.2578 40.4273 21.2578 40.5093C21.2032 40.7632 20.9805 41.0445 20.7813 41.2671C20.5 41.5484 20.1641 41.6031 19.6602 41.6031L19.4649 41.6616H17.586C17.1094 41.6616 16.7696 41.5484 16.5469 41.2671C16.2969 41.0445 16.1563 40.7632 16.0703 40.5093C16.0157 40.4273 16.0157 40.3687 16.0157 40.2866V26.8843C16.0703 26.5445 16.293 26.2085 16.5469 25.9273C16.9102 25.564 17.2461 25.4234 17.586 25.4234H19.6602ZM18.9336 27.6695C19.0157 27.6695 19.1289 27.7515 19.1836 27.9741C19.2696 28.228 19.3243 28.482 19.3243 28.7046V38.5757C19.2969 38.7437 19.2383 38.9702 19.211 39.107C19.1289 39.3335 19.043 39.3609 18.9336 39.3609L18.875 39.3882H18.4258C18.2852 39.3882 18.2305 39.3335 18.1758 39.107C18.0899 38.9663 18.0625 38.7437 18.0352 38.5757V28.7046C18.0352 28.482 18.0899 28.228 18.1758 28.0327C18.2578 27.7515 18.3438 27.6695 18.4258 27.6695H18.9336ZM10.8282 39.7827H11.1094C11.2774 39.7827 11.4453 39.7827 11.5274 39.7241C11.6407 39.6695 11.6953 39.6148 11.6953 39.5562V35.2085C11.6953 35.0718 11.6407 35.0132 11.4453 35.0132C11.3594 35.0132 11.1094 34.9859 10.8282 34.9859V39.7827ZM10.8282 32.2671H11.1094C11.2774 32.2671 11.4453 32.2671 11.5274 32.2085C11.6407 32.1538 11.6953 32.0991 11.6953 32.0406V27.6968C11.6953 27.5562 11.6407 27.4976 11.4453 27.4976C11.3594 27.4976 11.1094 27.4702 10.8282 27.4702V32.2671ZM8.47269 25.5093H12.5391C13.043 25.5093 13.5743 25.7593 13.8008 25.9273C13.9688 26.0679 14.2774 26.603 14.2774 27.107V31.0054C14.2774 31.482 14.1641 31.9585 14.0821 32.3804C13.9961 32.7437 13.7149 33.1343 13.2969 33.5015C13.3789 33.5015 13.4649 33.5015 13.5196 33.5562C13.5469 33.5835 13.6055 33.6968 13.6602 33.7515C13.6875 33.7788 13.9141 33.978 13.9414 34.0327C14.0235 34.1187 14.1368 34.314 14.1368 34.4546C14.1368 34.4546 14.2227 34.5952 14.2227 34.7359C14.2227 34.7905 14.2774 34.8726 14.2774 34.9312V39.8648C14.2774 40.3726 13.9414 40.8765 13.8008 41.0445C13.6328 41.2671 13.0977 41.6031 12.6797 41.6031H8.47269V25.5093ZM18.5625 66.5171C8.44925 63.6343 1.87503 57.0913 1.53519 43.9741C2.07425 33.2906 4.50394 23.6343 10.1602 15.7202C17.9063 5.69289 30.5625 1.91946 46.1016 1.60696H67.4453C86.2188 1.57571 99.0157 7.26321 101.273 21.2632C102.188 33.603 99.1016 45.2905 91.3008 56.232C84.7891 65.8609 73.7891 68.689 60.3321 68.7476L35.8164 68.7202C29.7344 68.8921 23.9063 67.9741 18.5625 66.5171ZM16.0196 67.2593C12.2188 65.8335 9.30472 64.2046 6.36331 61.4038C5.07816 59.9468 3.99222 58.4898 3.01956 56.8609C0.734407 52.1187 -0.179656 47.2632 0.105501 41.9468C1.04691 30.7476 4.21878 18.146 13.0743 10.4624C27.5625 -2.19382 50.1328 0.204613 67.5899 0.204613C78.7032 0.376488 91.8477 1.86086 98.961 11.4624C101.563 15.0327 102.762 19.0327 102.961 23.4624C102.961 25.7476 102.934 28.146 102.762 30.4624C101.59 41.3179 97.1016 52.3491 89.7891 60.5171C84.875 65.4351 79.3047 67.8335 72.5625 69.146C68.5469 69.8101 64.4883 70.1421 60.418 70.146L35.6758 70.1187C29.0196 70.2632 22.3633 69.232 16.0196 67.2593ZM21.2618 70.4507C20.8672 71.8257 20.5469 73.2398 20.1953 74.6304L19.6055 74.4898L20.8985 69.4976L21.8243 69.7476L22.3008 74.2359L24.9336 70.564L25.8594 70.814L24.6563 75.7515L24.0118 75.5249L25.1055 71.3765L22.4102 75.1616L21.8516 75.0796L21.2618 70.4507ZM26.9844 76.1148L26.2813 76.0874L28.5821 71.0679L29.2539 71.1265L30.9102 76.3687L30.1797 76.314L29.7852 74.9937L27.5977 74.8531L26.9844 76.1148ZM29.5899 74.4351L28.8907 71.771L27.8243 74.2945L29.5899 74.4351ZM34.2735 71.3765C35.9688 71.3765 36.7422 72.3257 36.7422 73.9273C36.7422 76.8452 34.4961 76.5366 32.4492 76.5366V71.3765H34.2735ZM33.0977 75.9195C34.6953 75.9195 36.0391 75.9702 36.0391 73.9273C36.0391 72.9976 35.5352 71.9937 34.4961 71.9937H33.0977V75.9195ZM42.043 73.6773V74.2945H39.293V76.0327H42.4336V76.6187H38.6758V71.4898H42.3203V72.107H39.293V73.6773H42.043ZM47.875 71.4898V76.6187H47.2305V71.4898H47.875ZM50.8203 76.6226H50.1446V71.4898H50.9024L53.5977 75.5288V71.4898H54.2969V76.6226H53.4844L50.8203 72.5562V76.6226ZM64 74.939C64 75.1734 63.8672 75.4273 63.8321 75.6656C62.8008 77.2124 60.8008 77.1109 59.711 75.7241C59.3008 75.0601 59.293 73.5405 59.5977 72.7788C60.1836 70.7241 63.8867 70.7945 63.8867 73.0601H63.2422C63.2422 71.7593 61.1563 71.5679 60.4961 72.5562C59.6328 73.7593 60.0899 76.146 61.8399 76.146C62.2617 76.146 62.625 76.0874 62.8789 75.7515C63.1289 75.4702 63.3008 75.2202 63.3008 74.939H64ZM65.1485 71.8804L65.1211 71.2945L68.7969 70.9273L68.8516 71.4898L66.1328 75.7241L69.3282 75.4429L69.3867 76.0874L65.4297 76.396L65.375 75.7515L68.0078 71.6304L65.1485 71.8804ZM74.0664 72.6109L74.1797 73.1734L71.461 73.564L71.7422 75.2749L74.7696 74.8804L74.8828 75.4429L71.1524 75.9468L70.5078 70.8726L74.0664 70.4234L74.125 70.9859L71.1524 71.3765L71.4063 72.9741L74.0664 72.6109ZM80.293 72.2163V73.0327C80.211 73.2827 80.0703 73.564 79.8164 73.9273C78.7578 74.8843 77.5235 74.982 76.3672 74.1538C75.7774 73.6577 75.293 72.1343 75.4414 71.3218C75.5 70.8726 75.6367 70.564 75.836 70.1968C76.5742 69.0913 79.0586 68.7359 79.5664 70.2554C79.6211 70.3101 79.6758 70.4234 79.6758 70.5054L79.0586 70.7007C79.0586 70.3726 78.5586 70.0484 78.3047 69.9741C78.1055 69.7788 77.7696 69.8335 77.3516 69.9741C75.5821 70.396 75.9688 72.8296 77.0977 73.732C77.9961 74.7046 79.8868 73.7007 79.5391 72.4116L80.293 72.2163ZM82.9844 73.0601L82.4805 73.3101L80.211 68.7398L80.7696 68.4312L81.7227 70.4234L83.9961 69.2437L83.0977 67.3374L83.7149 67.0015L85.9571 71.6304L85.3125 71.939L84.2461 69.7515L81.9492 70.8726L82.9844 73.0601ZM87.586 64.646L89.3789 63.357C89.4922 63.3023 89.5742 63.189 89.7149 63.1343C90.3047 62.5406 91.1211 62.7984 91.5664 63.4116C91.9258 63.8218 91.9961 64.4546 91.6797 64.8999V64.9546C92.5196 64.607 93.1719 65.4663 93.5039 66.1343C93.5664 66.1656 93.8789 66.4155 93.9219 66.3296C93.1446 66.8843 93.3477 66.9038 92.6328 66.189C92.1836 65.7359 91.875 65.0952 91.1211 65.7124L89.9141 66.6382L91.2578 68.3491L90.7266 68.7398L87.586 64.646ZM89.5742 66.189C89.9805 65.9077 91.2032 65.2749 91.2032 64.7007C91.3125 64.478 91.2578 64.3648 91.2578 64.1695C91.2578 64.0952 91.1172 63.9507 91.1172 63.8609C90.461 62.7671 89.086 64.2984 88.5117 64.7593L89.5742 66.189ZM95.1836 60.357L95.6055 60.7749L93.8946 62.8257L95.1836 64.0015L97.2305 61.6187L97.7071 62.0406L95.2422 64.814L91.3438 61.4781L93.7266 58.7593L94.1485 59.1226L92.1563 61.3687L93.4453 62.4312L95.1836 60.357ZM95.5196 56.0913C96.0157 55.2085 96.7774 54.8609 97.7071 55.3921C99.1407 56.6812 98.0508 57.732 97.2891 58.982L98.9727 60.1031L98.5782 60.6382L94.3164 57.8023L95.5196 56.0913ZM96.7852 58.646C97.2813 57.8648 98.3242 56.814 97.2891 56.0366C96.3985 55.2632 95.5391 57.0366 95.1836 57.5796L96.7852 58.646ZM97.5117 52.982C97.7305 53.103 100.148 54.4702 100.148 54.5249C100.203 54.5249 100.344 54.5249 100.43 54.6343C101.273 54.9741 101.711 54.9546 102.223 54.1031C102.73 53.2906 102.273 52.5288 101.492 52.1109L98.8594 50.6538L99.2227 50.0366L101.914 51.5796C102.645 52.0288 103.035 52.478 103.094 52.982C103.094 54.3491 102.133 55.7202 100.652 55.4507C99.4453 54.9663 98.3047 54.1655 97.1758 53.5132L97.5117 52.982ZM100.711 46.3609C100.906 45.857 101.16 45.5757 101.41 45.4663C102.375 45.271 103.309 45.4859 103.148 46.7554L103.176 46.8101C103.176 46.5562 103.691 46.3023 103.906 46.2788C104.414 45.9898 105.43 46.4898 105.531 47.064C105.672 47.3452 105.672 47.6538 105.617 47.9312C105.504 48.0484 105.395 48.4312 105.309 48.607L104.355 50.5406L99.7578 48.3804L100.711 46.3609ZM104.102 49.6421C104.441 49.0054 105.68 47.4038 104.41 46.9781C103.402 46.3062 102.781 48.3765 102.504 48.9702L104.102 49.6421ZM102.027 48.7476C102.164 48.4273 102.934 46.9624 102.699 46.6695C102.645 46.4702 102.227 46.1109 101.973 46.1109C101.223 46.1109 100.84 47.5093 100.598 48.0445L102.027 48.7476ZM107.887 41.8765L106.797 45.0171L101.914 43.3335L102.109 42.7437L106.402 44.232L107.242 41.6226L107.887 41.8765ZM103.316 38.5093L108.309 39.7163L108.168 40.3335L103.176 39.0991L103.316 38.5093ZM107.973 33.0132C108.523 33.0132 109.102 33.6773 109.262 34.1343C109.711 35.0366 109.328 35.771 108.98 36.5757C108.148 37.8687 106.289 37.5054 105.086 37.0249C104.777 36.771 104.496 36.4351 104.215 36.1538C103.531 34.8726 104.219 32.7906 105.84 32.7906C105.926 32.732 106.039 32.7906 106.121 32.7906L106.039 33.4624C105.981 33.4624 105.898 33.4038 105.84 33.4038C105.813 33.4624 105.758 33.4624 105.699 33.4624C104.559 33.5757 104.367 35.3335 105 36.0679C106.043 37.1109 108.547 37.1187 108.813 35.3413C108.902 34.6538 108.594 33.8374 107.832 33.6851L107.973 33.0132ZM96.25 4.77493C96.25 3.48196 96.7539 2.41946 97.6797 1.60305C98.5508 0.735863 99.5313 0.286643 100.625 0.200706H101.02C102.113 0.231956 103.176 0.622581 104.129 1.49368C105.086 2.33352 105.563 3.42727 105.563 4.77493C105.563 6.20461 105.086 7.32571 104.074 8.1968C103.176 8.98196 102.086 9.45852 100.961 9.45852H100.68C99.586 9.37258 98.5782 8.92336 97.6797 8.11086C96.7539 7.27102 96.25 6.17727 96.25 4.77493ZM97.1758 4.77493V5.02493C97.2305 5.97805 97.5977 6.8218 98.2149 7.57571C98.9141 8.39211 99.8125 8.75539 100.906 8.75539C101.859 8.75539 102.727 8.41946 103.512 7.68899C104.27 6.90383 104.691 6.03274 104.691 4.77102C104.691 3.64993 104.27 2.64211 103.512 1.99758C102.754 1.29446 101.887 0.845238 100.961 0.845238H100.906C99.8125 0.845238 98.9141 1.29446 98.211 2.07961C97.5664 2.81008 97.2032 3.73586 97.1758 4.66164V4.77493ZM99.2227 2.50149H101.297C101.719 2.50149 102 2.55618 102.309 2.72414C102.645 2.86477 102.785 3.23196 102.785 3.73586C102.785 3.95852 102.758 4.18508 102.672 4.32571C102.559 4.49368 102.422 4.6343 102.309 4.71633C102.277 4.74368 102.195 4.74368 102.113 4.77493C102.082 4.77493 102 4.80227 101.973 4.80227V4.85696C102.25 4.8843 102.391 4.99758 102.504 5.11086C102.559 5.27883 102.617 5.41946 102.617 5.58743V5.92336C102.617 5.97805 102.559 6.06399 102.559 6.09133V6.28664C102.559 6.42727 102.617 6.59524 102.645 6.70852C102.672 6.8218 102.758 6.96243 102.867 7.0718H101.945C101.945 7.01711 101.914 6.98977 101.887 6.96243C101.859 6.87649 101.832 6.84914 101.832 6.8218C101.797 6.75149 101.777 6.67336 101.773 6.59524V5.81008C101.773 5.61477 101.719 5.47414 101.578 5.36477C101.465 5.27883 101.188 5.13821 100.793 5.13821H100.09V7.0718H99.2227V2.50149ZM100.09 4.54836H101.102C101.324 4.54836 101.523 4.52102 101.664 4.43508C101.719 4.38039 101.832 4.26711 101.859 4.18508C101.887 4.0718 101.914 4.01711 101.914 3.95852V3.8218C101.914 3.51321 101.828 3.31399 101.691 3.23196C101.465 3.09133 101.242 3.06399 100.988 3.06399H100.09V4.54836ZM80.8555 55.7554C81.5821 54.1851 82.8438 51.8023 84.1367 50.2593C85.9297 48.1304 87.5 48.5796 85.6211 51.2984C84.3594 53.1499 81.918 55.2788 80.8555 55.7554ZM32.2813 53.6538C32.3672 53.7085 32.2266 54.1304 31.9453 54.521C31.6641 54.8882 31.3282 55.1109 31.2188 55.0288C31.1328 54.9702 31.2735 54.607 31.5547 54.2437C31.8633 53.8491 32.1992 53.5679 32.2813 53.6538ZM38.6211 66.4976C38.5078 64.814 40.8907 63.4116 43.0508 62.0366C43.5547 61.8413 44.2032 61.1421 44.2852 60.6929C44.4532 59.7945 44.0625 60.0757 43.7813 60.189C41.9024 60.8609 40.0235 61.8687 38.9571 59.7945C36.6875 61.5913 31.5547 66.189 30.3203 63.357C30.125 61.982 31.3282 59.9077 31.8907 59.0093C33.0391 57.2437 32.4493 56.2046 30.9649 56.7398C30.8516 56.7671 29.8164 57.7202 29.5899 58.0015C28.3555 59.4312 24.7657 61.728 22.2149 62.0366C19.3555 62.3765 15.2891 63.2163 12.5977 59.7945C9.76175 54.5796 12.0078 48.1851 13.2422 42.857H16.9141C14.5313 50.5952 10.2969 61.5913 22.1328 60.6382C25.5235 59.6265 27.8243 58.3374 30.2618 55.7554C29.6172 54.2437 30.7696 53.1773 31.8907 52.3062C32.5899 51.521 34.1875 51.0991 33.9375 53.2046C33.2071 53.6265 32.9571 54.7749 32.6485 55.4195C36.375 55.728 35.4805 57.7749 34.3008 59.4038C33.8242 60.0484 32.3399 61.7281 32.1133 62.5718C31.8321 63.5523 32.4219 63.5523 33.0391 63.1304C37.1328 60.4663 39.211 58.2515 42.2383 53.3452H44.4805L41.7617 58.9546C41.3399 60.1577 42.3516 59.5718 43.1367 59.232C44.7071 58.5601 46.3047 56.064 46.7539 54.8296H49.0821L47.1172 59.6265C48.6602 58.9546 49.7852 58.2241 50.9336 57.7202C51.8867 57.3257 52.418 56.3999 52.8399 55.2241H54.4375C54.5235 57.4663 54.7188 59.6812 55.168 61.6734C58.5899 58.5874 59.9336 55.1968 61.1407 51.9976L59.0352 52.0249L59.3438 50.8218L61.8399 50.6226L63.0469 48.6616H65.2344L64.5625 50.7359L69.1602 50.9312L68.7696 51.7476L63.6641 52.1382L60.1875 60.1577C59.7657 62.9351 63.0196 60.9429 63.4141 59.9351C63.7774 59.4859 64.2813 59.2359 64.6758 58.5327C66.0469 55.5327 67.4219 53.5679 71.1797 53.3452H72.7774L72.8907 53.8765C70.4532 54.521 68.461 55.6734 67.7032 57.4663C66.9727 59.1499 67.1133 60.8609 69.7774 59.5445C70.9766 58.5796 71.9844 57.3999 72.75 56.064H74.6563C74.3789 56.8218 72.918 59.4585 72.4141 60.9156C71.6016 63.271 74.6016 61.2241 75.2735 60.607C77.1524 58.7866 78.9492 54.9429 80.7696 51.9976C84.0235 46.8374 90.6719 46.4741 85.9883 52.2788C84.7539 53.8491 82.8164 55.8413 81.0235 57.2163C78.3594 59.0366 77.2657 64.4234 81.0235 61.5054C81.4727 61.1421 82.6797 60.1616 83.1563 59.5991H84.3907C81.1641 63.4976 77.8828 65.3218 76.1719 61.2827C72.0235 64.0015 70.4805 64.6187 70.168 60.1616C67.8985 61.6187 66.3008 61.8999 65.0938 59.9624C62.461 63.1343 59.0078 65.2945 57.8321 60.8335C55.6992 63.3296 54.4961 64.478 52.6172 64.564C52 64.564 50.8789 64.564 49.6992 64.4781L49.586 64.0015C50.3438 63.9741 51.043 63.7515 51.2969 63.7202C51.9688 63.6655 52.3633 62.9351 52.336 62.3491L51.9414 58.0288C50.0899 59.0952 48.043 60.5523 46.1914 61.4781C45.6875 62.3765 43.8672 65.4898 42.4063 66.7788C41.7617 67.3374 39.2657 67.8413 38.6211 66.4976ZM39.8828 65.7671C40.5 65.0093 41.2852 64.4234 42.1524 63.8882C41.7617 64.7866 41.5664 65.7124 40.668 66.2437C40.0235 66.4976 39.7149 66.3843 39.8828 65.7671ZM19.4375 47.5406C19.9141 45.3531 20.1133 45.1851 20.5313 43.6148H21.3164C21.1797 54.1851 31.6368 46.1655 36.0703 42.8023H37.1055C37.3008 42.9116 33.1797 47.0054 28.8594 49.7281C26.0313 51.4937 17.9805 54.1031 19.4375 47.5406ZM45.9688 24.6851C46.836 22.3023 47.875 19.6655 47.875 17.5601C47.8477 11.2788 41.4805 12.2905 37.75 13.7749C32.5899 15.7945 27.3477 20.2827 24.4297 24.4859H21.8789C26.086 19.6655 30.9375 14.6734 36.9375 12.5132C41.7344 10.8023 49.1367 10.1851 49.1367 17.3921C49.1367 19.8062 48.2696 22.5796 47.2852 24.6577L45.9688 24.6851Z" fill="#333991"/>
</svg>
