<?xml version="1.0" encoding="utf-8"?><svg viewBox="0 0 1549.333 1706.667" xmlns="http://www.w3.org/2000/svg" xmlns:xlink="http://www.w3.org/1999/xlink"><style>:root>svg{display:none}:root>svg:target{display:block}</style><svg viewBox="0 0 9 10" id="about-check" xmlns="http://www.w3.org/2000/svg"><path d="M6.535 4.537L4.18 6.892a.353.353 0 01-.502 0L2.037 5.251a.353.353 0 010-.502l.569-.569c.14-.14.363-.14.502 0l.82.82 1.535-1.535c.14-.14.363-.14.502 0l.569.569c.14.14.14.363 0 .502zM7.321 5c0-1.674-1.362-3.036-3.036-3.036S1.249 3.326 1.249 5s1.362 3.036 3.036 3.036S7.321 6.674 7.321 5zm1.25 0c0 2.366-1.92 4.286-4.286 4.286S-.001 7.366-.001 5 1.919.714 4.285.714 8.571 2.634 8.571 5z"/></svg><svg viewBox="0 0 18 14" id="check" xmlns="http://www.w3.org/2000/svg"><path d="M17 1.897L6 12.98 1 7.942"/></svg><svg viewBox="0 0 9 10" id="check-square" xmlns="http://www.w3.org/2000/svg"><path d="M7.857 5.19v1.775c0 .887-.72 1.607-1.607 1.607H1.607C.72 8.572 0 7.852 0 6.965V2.322C0 1.435.72.715 1.607.715H6.25c.223 0 .446.045.653.14.05.022.089.073.1.128a.178.178 0 01-.05.162l-.273.273a.194.194 0 01-.128.056c-.017 0-.033-.006-.05-.011a.983.983 0 00-.251-.033H1.608a.896.896 0 00-.893.893v4.643c0 .491.402.893.893.893h4.643a.896.896 0 00.893-.893V5.549c0-.045.017-.089.05-.123l.357-.357a.179.179 0 01.128-.056c.022 0 .045.006.067.017a.175.175 0 01.112.162zm1.289-2.729L4.604 7.003a.444.444 0 01-.636 0l-2.4-2.4a.444.444 0 010-.636l.614-.614a.444.444 0 01.636 0l1.468 1.468 3.61-3.61a.444.444 0 01.636 0l.614.614a.444.444 0 010 .636z"/></svg><svg viewBox="0 0 10 10" id="chevron-down" xmlns="http://www.w3.org/2000/svg"><path d="M9.392 4.509L5.251 8.644a.353.353 0 01-.502 0L.608 4.509a.36.36 0 010-.508l.926-.921c.14-.14.363-.14.502 0l2.963 2.963L7.962 3.08c.14-.14.363-.14.502 0l.926.921a.36.36 0 010 .508z"/></svg><svg viewBox="0 0 24 49" id="facebook" xmlns="http://www.w3.org/2000/svg"><path d="M15 17.315v-5.968a2.993 2.993 0 013-2.984h3V.903h-6c-4.971 0-9 4.008-9 8.952v7.46H0v7.46h6v23.872h9V24.775h6l3-7.46h-9z"/></svg><svg viewBox="0 0 10 10" id="glass" xmlns="http://www.w3.org/2000/svg"><path d="M7.596.165A.313.313 0 007.321 0H2.68a.31.31 0 00-.275.165 4.618 4.618 0 00-.529 2.179c0 1.029.316 2 .89 2.734.444.567 1.001.943 1.61 1.095v3.202h-.937a.313.313 0 100 .626h3.125a.313.313 0 100-.626h-.938V6.173c.609-.153 1.166-.529 1.61-1.095.574-.733.89-1.704.89-2.734 0-.781-.183-1.534-.529-2.179zm-4.724.46h4.256A4.035 4.035 0 017.497 2.5H2.503A4.035 4.035 0 012.872.625z"/></svg><svg viewBox="0 0 10 10" id="hand-o-right" xmlns="http://www.w3.org/2000/svg"><path d="M1.429 7.5c0-.195-.162-.357-.357-.357s-.357.162-.357.357.162.357.357.357.357-.162.357-.357zm7.857-3.214a.738.738 0 00-.714-.714H5.358c0-.352.536-.714.536-1.429 0-.536-.419-.714-.893-.714-.156 0-.441.647-.502.776-.067.123-.134.246-.206.363a5.87 5.87 0 01-.625.809c-.357.407-.753.91-1.345.91h-.179v3.571h.179c.977 0 1.931.714 3.013.714.625 0 1.055-.262 1.055-.932 0-.106-.011-.212-.028-.313.234-.128.363-.446.363-.703a.776.776 0 00-.1-.385.889.889 0 00.296-.664c0-.179-.078-.441-.195-.575h1.847a.726.726 0 00.714-.714zM10 4.28c0 .781-.647 1.434-1.429 1.434h-.943a1.571 1.571 0 01-.206.664 1.625 1.625 0 01-.318 1.233c.011 1.055-.709 1.674-1.741 1.674-.625 0-1.217-.173-1.797-.385-.34-.123-.893-.329-1.244-.329H.715a.712.712 0 01-.714-.714V4.286c0-.396.318-.714.714-.714h1.607c.268 0 .647-.48.809-.664.201-.229.391-.458.558-.72C4.013 1.669 4.253.715 5 .715c.887 0 1.607.485 1.607 1.429 0 .246-.039.485-.123.714h2.087c.77 0 1.429.653 1.429 1.423z"/></svg><svg viewBox="0 0 10 7" id="icon-arrow-down" xmlns="http://www.w3.org/2000/svg"><g clip-path="url(#hclip0_1789_5676)"><path d="M1.429 1.116l3.714 4.03 3.714-4.03"/></g><defs><clipPath id="hclip0_1789_5676"><path transform="translate(0 .109)" d="M0 0h10v6.046H0z"/></clipPath></defs></svg><svg viewBox="0 0 46 31" id="icon-company1" xmlns="http://www.w3.org/2000/svg"><path d="M31.852 27.704a.665.665 0 00.662-.668v-.387c.998-.276 1.638-1.144 1.78-2 .188-1.122-.416-2.135-1.503-2.522a23.64 23.64 0 01-.277-.101v-1.892c.454.074.792.237.803.242a.66.66 0 00.886-.298.67.67 0 00-.295-.896 4.467 4.467 0 00-1.394-.392v-.238a.665.665 0 00-.663-.668.665.665 0 00-.662.668v.33l-.069.02c-.735.223-1.283.854-1.431 1.647-.137.73.1 1.438.616 1.846.232.184.513.352.884.525v2.449c-.23-.044-.42-.136-.706-.325a.66.66 0 00-.917.193.67.67 0 00.192.924c.542.358.942.501 1.431.553v.323c0 .368.297.667.663.667zm1.136-3.277a1.201 1.201 0 01-.474.767v-1.737c.523.271.51.76.474.97zm-1.865-3.082c-.125-.098-.177-.313-.133-.548a.878.878 0 01.2-.412v1.01a1.871 1.871 0 01-.067-.05zM11.695 9.016a.66.66 0 00-.867.357l-2.683 6.442a.67.67 0 00.354.874.66.66 0 00.867-.357l2.683-6.443a.67.67 0 00-.354-.873zM7.756 8.665c-1.02 0-1.848.922-1.848 2.056 0 1.133.829 2.055 1.848 2.055 1.018 0 1.847-.922 1.847-2.055 0-1.134-.829-2.056-1.847-2.056zm0 2.777c-.284 0-.524-.33-.524-.721 0-.391.24-.721.524-.721.283 0 .523.33.523.72 0 .392-.24.722-.523.722zM12.354 13.069c-1.02 0-1.848.922-1.848 2.055 0 1.134.829 2.056 1.848 2.056 1.019 0 1.848-.922 1.848-2.056 0-1.133-.83-2.056-1.848-2.056zm0 2.776c-.284 0-.524-.33-.524-.721 0-.39.24-.721.524-.721.283 0 .523.33.523.721 0 .39-.24.72-.523.72zM40.88 11.831h-5.451a.665.665 0 00-.663.668c0 .368.297.667.663.667h5.45a.665.665 0 00.663-.668.665.665 0 00-.663-.667zM41.541 15.075a.665.665 0 00-.662-.667h-7.216a.665.665 0 00-.663.667c0 .369.297.668.663.668h7.216a.665.665 0 00.662-.668zM6.57 23.04h5.684a.665.665 0 00.663-.667.665.665 0 00-.662-.667H6.569a.665.665 0 00-.662.667c0 .369.297.668.662.668zM6.57 25.943h7.628a.665.665 0 00.662-.667.665.665 0 00-.662-.667H6.57a.665.665 0 00-.662.667c0 .369.296.667.662.667z"/><path d="M44.548 22.348a.665.665 0 00.662-.667V9.083c0-.766-.52-1.445-1.266-1.651a2.289 2.289 0 01-1.587-1.599 1.716 1.716 0 00-1.639-1.276h-3.547c.214-.38.336-.818.336-1.285 0-1.444-1.166-2.62-2.6-2.62H32.94c-.77 0-1.461.34-1.938.876a2.586 2.586 0 00-1.937-.876H27.1c-1.434 0-2.6 1.176-2.6 2.62 0 .467.122.905.335 1.285H10.08a.665.665 0 00-.663.667c0 .369.297.667.663.667h18.914l-.528.395a1.89 1.89 0 00-.604 2.274.554.554 0 01-.433.772l-.722.096a.666.666 0 00-.57.75c.048.364.38.622.743.574.367-.105 1.496.053 2.11-1.04a1.886 1.886 0 00.086-1.685.555.555 0 01.177-.668l1.75-1.305.29.217-15.27 23.304H4.491a.382.382 0 01-.361-.295 3.625 3.625 0 00-2.513-2.532.383.383 0 01-.293-.364V9.083c0-.17.118-.316.293-.365a3.625 3.625 0 002.513-2.53.382.382 0 01.361-.296h2.94a.665.665 0 00.663-.668.665.665 0 00-.662-.667h-2.94c-.76 0-1.434.525-1.64 1.276a2.289 2.289 0 01-1.586 1.599A1.724 1.724 0 000 9.083v17.3c0 .766.52 1.445 1.266 1.652a2.289 2.289 0 011.587 1.599 1.715 1.715 0 001.639 1.276h36.227c.76 0 1.433-.525 1.638-1.276a2.289 2.289 0 011.587-1.599 1.724 1.724 0 001.267-1.651v-2.035a.665.665 0 00-.663-.667.665.665 0 00-.662.667v2.035c0 .17-.118.316-.293.364a3.624 3.624 0 00-2.513 2.532.381.381 0 01-.361.295H17.61l14.75-22.51.393.294c.208.154.281.43.178.668a1.887 1.887 0 00.086 1.684 1.86 1.86 0 001.388.945c.747.097.732.101.81.101a.664.664 0 00.655-.58.667.667 0 00-.57-.748l-.722-.097a.555.555 0 01-.433-.772 1.89 1.89 0 00-.604-2.274l-.45-.336.038-.058h7.59c.168 0 .313.118.361.295a3.625 3.625 0 002.513 2.532.383.383 0 01.293.364v12.598c0 .368.296.667.662.667zM32.941 1.987h1.966c.703 0 1.276.576 1.276 1.285 0 .706-.569 1.281-1.27 1.285h-3.247V3.272c0-.709.572-1.285 1.275-1.285zm-7.117 1.285c0-.709.572-1.285 1.276-1.285h1.966c.703 0 1.275.576 1.275 1.285v1.285h-3.248a1.282 1.282 0 01-1.269-1.285z"/></svg><svg viewBox="0 0 46 46" id="icon-company2" xmlns="http://www.w3.org/2000/svg"><g clip-path="url(#jclip0_1789_5570)"><path d="M21.27 29.02c-.477 0-.88-.548-.88-1.195 0-.866-.7-1.57-1.56-1.57-.858 0-1.557.704-1.557 1.57 0 2.39 1.793 4.335 3.997 4.335h1.107v1.57c0 .866.699 1.57 1.558 1.57.86 0 1.559-.704 1.559-1.57v-1.57H26.6c.603 0 1.184-.143 1.725-.424a.525.525 0 00.223-.705.517.517 0 00-.7-.225 2.68 2.68 0 01-1.248.307h-1.626a.521.521 0 00-.52.523v2.094a.522.522 0 01-.519.523.522.522 0 01-.52-.523v-2.094a.521.521 0 00-.519-.523H21.27c-1.631 0-2.959-1.475-2.959-3.288 0-.29.233-.524.52-.524.286 0 .52.235.52.524 0 1.236.86 2.241 1.92 2.241h1.625c.287 0 .52-.234.52-.523v-5.28a.522.522 0 00-.52-.524H21.27c-.802 0-1.552-.35-2.113-.985a3.468 3.468 0 01-.846-2.303v-1.844c0-1.813 1.328-3.288 2.96-3.288h1.625c.287 0 .52-.235.52-.524v-2.093c0-.289.233-.523.52-.523.286 0 .519.234.519.523v2.094c0 .289.232.523.52.523H26.6c1.632 0 2.96 1.475 2.96 3.288a.522.522 0 01-.52.524.522.522 0 01-.52-.524c0-1.236-.861-2.241-1.92-2.241h-1.626a.521.521 0 00-.52.523v5.28a.525.525 0 00.52.523H26.6c.802 0 1.553.35 2.113.986.546.618.846 1.436.846 2.303v1.843c0 .511-.103 1.001-.306 1.456a.525.525 0 00.26.692.518.518 0 00.687-.262 4.591 4.591 0 00.398-1.886v-1.843a4.518 4.518 0 00-1.108-2.998c-.76-.863-1.787-1.337-2.89-1.337h-1.107v-4.234H26.6c.478 0 .881.548.881 1.195 0 .866.7 1.57 1.559 1.57s1.558-.704 1.558-1.57c0-2.39-1.793-4.335-3.998-4.335h-1.106v-1.57c0-.866-.7-1.57-1.559-1.57s-1.558.704-1.558 1.57v1.57H21.27c-2.204 0-3.997 1.945-3.997 4.335v1.844c0 1.123.393 2.188 1.108 2.998.76.862 1.787 1.337 2.89 1.337h1.106v4.234H21.27zm2.665-20.877c-3.222 0-6.294 1.02-8.883 2.952-.23.172-.279.5-.108.732.17.232.496.281.726.11a13.726 13.726 0 018.265-2.747c7.676 0 13.92 6.292 13.92 14.026s-6.244 14.026-13.92 14.026-13.92-6.292-13.92-14.026c0-3.632 1.378-7.079 3.88-9.706a.526.526 0 00-.015-.74.517.517 0 00-.734.015 15.057 15.057 0 00-4.17 10.431c0 8.311 6.71 15.073 14.96 15.073 8.248 0 14.959-6.762 14.959-15.073S32.184 8.143 23.935 8.143zm12.537 2.44c-3.349-3.373-7.8-5.231-12.537-5.231-4.735 0-9.188 1.858-12.537 5.232-3.348 3.374-5.192 7.86-5.192 12.632 0 4.772 1.844 9.258 5.192 12.632 3.35 3.374 7.802 5.232 12.537 5.232 4.736 0 9.188-1.858 12.537-5.232s5.193-7.86 5.193-12.632c0-4.772-1.844-9.258-5.193-12.632zm-.735 24.525c-3.152 3.176-7.343 4.926-11.802 4.926-4.458 0-8.65-1.75-11.802-4.926-3.152-3.177-4.889-7.4-4.889-11.892 0-4.492 1.737-8.716 4.889-11.892 3.153-3.176 7.344-4.926 11.802-4.926 4.459 0 8.65 1.75 11.802 4.926 3.153 3.177 4.89 7.4 4.89 11.892 0 4.492-1.737 8.715-4.89 11.892zM26.6 23.739h-1.626a.521.521 0 00-.52.524v5.28c0 .289.233.523.52.523H26.6c1.059 0 1.92-1.005 1.92-2.241V25.98c0-.61-.207-1.181-.583-1.608-.36-.409-.835-.634-1.337-.634zm.881 4.085c0 .648-.403 1.196-.88 1.196h-1.107v-4.234H26.6c.2 0 .4.1.56.283.207.234.321.558.321.912v1.843zm-4.585-11.458H21.27c-1.058 0-1.92 1.005-1.92 2.241v1.844c0 .61.207 1.181.584 1.607.36.41.835.635 1.336.635h1.626c.287 0 .52-.235.52-.524v-5.28a.521.521 0 00-.52-.523zm-.519 5.28H21.27c-.2 0-.4-.1-.56-.283a1.37 1.37 0 01-.32-.912v-1.844c0-.647.403-1.195.88-1.195h1.107v4.234zM39.495 6.428a.547.547 0 00-.716-.073.431.431 0 00-.08.648l.51.578h-3.24c-.282 0-.51.206-.51.46s.228.46.51.46h3.24l-.51.579a.431.431 0 00.08.647c.22.16.541.125.716-.073l1.172-1.325a.426.426 0 000-.575l-1.172-1.326zM5.716 39.13a.547.547 0 00.716.072.431.431 0 00.08-.647l-.51-.578h3.24c.281 0 .51-.206.51-.46 0-.255-.229-.461-.51-.461h-3.24l.51-.578a.431.431 0 00-.08-.647.547.547 0 00-.716.072l-1.172 1.326a.426.426 0 000 .575l1.172 1.326z" opacity=".7"/><path opacity=".7" d="M3.779 41.065h9.928a.482.482 0 00.477-.488.482.482 0 00-.477-.487H3.941v-1.194a.488.488 0 00-.296-.45.47.47 0 00-.52.107L.138 41.64a.495.495 0 000 .685l2.987 3.086a.47.47 0 00.52.108.487.487 0 00.296-.45v-1.195h9.766a.482.482 0 00.477-.487.482.482 0 00-.477-.487H3.78a.801.801 0 00-.792.809v.174l-1.84-1.9 1.84-1.901v.175c0 .446.355.809.792.809zM45.073 3.232L42.086.146a.469.469 0 00-.52-.108.487.487 0 00-.296.45v1.195h-2.198a.482.482 0 00-.477.487c0 .269.214.487.477.487h2.36a.801.801 0 00.791-.809v-.174l1.84 1.9-1.84 1.901V5.3a.801.801 0 00-.79-.808h-9.93a.482.482 0 00-.476.487c0 .269.213.487.477.487h9.766V6.66c0 .197.117.375.296.45a.47.47 0 00.52-.107l2.987-3.086a.495.495 0 000-.685z"/><path opacity=".7" d="M31.538 2.682h6.07c.282 0 .51-.2.51-.447 0-.246-.228-.446-.51-.446h-6.07c-.282 0-.51.2-.51.446 0 .247.228.447.51.447z"/></g><defs><clipPath id="jclip0_1789_5570"><path d="M0 0h45.211v45.554H0z"/></clipPath></defs></svg><svg viewBox="0 0 46 46" id="icon-company3" xmlns="http://www.w3.org/2000/svg"><path d="M38.972 20.498c0 .369.297.668.663.668a.665.665 0 00.662-.668c0-1.2-.927-2.096-2.013-2.036v-.369a.665.665 0 00-.662-.667.665.665 0 00-.662.667v.37c-1.093-.075-2.015.855-2.013 2.035v.913c-.006 1.167.92 2.12 2.013 2.036v2.316c-.377.045-.688-.239-.688-.702a.665.665 0 00-.663-.667.665.665 0 00-.662.667c0 1.167.92 2.121 2.013 2.036v.37c0 .368.296.667.662.667a.665.665 0 00.662-.668v-.369c1.081.061 2.016-.845 2.013-2.036v-.912c0-.53-.185-1.03-.521-1.412a1.817 1.817 0 00-1.492-.624v-2.316c.364-.063.688.251.688.701zm-2.012 1.615c-.377.045-.688-.239-.688-.702v-.913c-.002-.492.305-.73.688-.701v2.316zm1.826 1.511c.12.136.186.323.186.525v.912c-.006.439-.319.772-.688.702v-2.316c.19-.044.421.086.502.177zm-1.164-8.49c-4.184 0-7.588 3.43-7.588 7.646 0 4.023 3.1 7.328 7.02 7.622a13.653 13.653 0 01-.327 5.42 2.824 2.824 0 00-.415-.63 2.772 2.772 0 00-1.921-.955l-1.693-.112a.659.659 0 00-.48.165.67.67 0 00-.225.458l-.11 1.706c-.102 1.551 1.069 2.896 2.609 2.998l.617.04c-1.696 2.655-3.977 4.119-5.124 4.73h-6.718v-4.414h1.035c1.543 0 2.799-1.265 2.799-2.82v-1.71a.665.665 0 00-.663-.667h-1.697c-.54 0-1.045.156-1.474.424V31.8h1.035c1.543 0 2.799-1.265 2.799-2.82v-1.71a.665.665 0 00-.663-.666h-1.697c-.54 0-1.045.155-1.474.424v-3.235h1.035c1.543 0 2.799-1.265 2.799-2.82v-1.71a.665.665 0 00-.663-.667h-1.697c-.54 0-1.045.156-1.474.424v-1.805c4.409-.342 7.892-4.066 7.892-8.594 0-4.752-3.837-8.618-8.554-8.618-4.716 0-8.553 3.866-8.553 8.618 0 4.528 3.483 8.252 7.89 8.593v4.475a2.766 2.766 0 00-1.473-.424h-1.697a.665.665 0 00-.662.667v1.71c0 1.555 1.255 2.82 2.798 2.82h1.035v3.235a2.766 2.766 0 00-1.474-.424h-1.697a.665.665 0 00-.662.667v1.71c0 1.555 1.255 2.82 2.798 2.82h1.035v3.235a2.766 2.766 0 00-1.474-.425h-1.697a.665.665 0 00-.662.667v1.71c0 1.555 1.255 2.82 2.798 2.82h1.035v1.745h-6.718c-1.147-.611-3.428-2.075-5.124-4.73l.618-.04c1.54-.102 2.71-1.447 2.609-2.998l-.111-1.706a.67.67 0 00-.224-.459.659.659 0 00-.48-.164l-1.694.112a2.772 2.772 0 00-1.92.955 2.833 2.833 0 00-.416.63 13.655 13.655 0 01-.326-5.42c3.92-.294 7.02-3.599 7.02-7.622 0-4.216-3.405-7.646-7.589-7.646-.96 0-1.896.178-2.783.53a.669.669 0 00-.373.866.66.66 0 00.86.376 6.194 6.194 0 012.296-.438c3.454 0 6.264 2.832 6.264 6.312 0 3.48-2.81 6.311-6.264 6.311s-6.264-2.83-6.264-6.311c0-1.576.58-3.085 1.632-4.25a.67.67 0 00-.043-.942.659.659 0 00-.936.044A7.66 7.66 0 000 22.78c0 3.955 2.997 7.22 6.823 7.607-.087.68-.139 1.45-.119 2.287a2.807 2.807 0 00-.641-.337 2.761 2.761 0 00-2.14.087l-1.54.718a.67.67 0 00-.323.886l.712 1.552a2.788 2.788 0 001.575 1.463 2.771 2.771 0 002.14-.087l.831-.388c.142.472.31.952.513 1.438 1.05 2.52 3.266 5.023 4.904 6.216H4.901a.665.665 0 00-.663.667c0 .369.297.668.663.668H40.31a.665.665 0 00.662-.668.665.665 0 00-.662-.667h-7.835c1.691-1.2 3.838-3.656 4.904-6.216.203-.486.372-.966.513-1.438l.832.387a2.773 2.773 0 002.14.088c.701-.26 1.26-.78 1.574-1.463l.712-1.552a.67.67 0 00-.322-.886l-1.54-.718a2.761 2.761 0 00-2.14-.087c-.231.085-.446.2-.642.337.02-.838-.032-1.608-.118-2.287a7.515 7.515 0 005.274-2.977.67.67 0 00-.126-.936.659.659 0 00-.928.127 6.206 6.206 0 01-4.986 2.49c-3.454 0-6.264-2.83-6.264-6.311 0-3.48 2.81-6.312 6.264-6.312s6.264 2.832 6.264 6.312c0 .428-.043.857-.127 1.272a.662.662 0 101.298.268 7.763 7.763 0 00.154-1.54c0-4.216-3.405-7.646-7.589-7.646zM5.931 35.744a1.468 1.468 0 01-1.957-.724l-.434-.946.939-.438a1.468 1.468 0 011.957.724l.434.947-.94.437zm3.6 1.404a1.483 1.483 0 011.375-1.579l1.032-.068.068 1.04a1.483 1.483 0 01-1.374 1.58l-1.032.067-.068-1.04zm12.412 3.994h-1.035a1.481 1.481 0 01-1.474-1.485v-1.042h1.035c.813 0 1.474.666 1.474 1.485v1.042zm0-8.007h-1.035a1.481 1.481 0 01-1.474-1.485v-1.043h1.035c.813 0 1.474.666 1.474 1.485v1.043zm0-8.008h-1.035a1.481 1.481 0 01-1.474-1.485V22.6h1.035c.813 0 1.474.666 1.474 1.485v1.042zm2.798 10.819h1.035v1.042c0 .82-.661 1.485-1.474 1.485h-1.035v-1.042c0-.82.662-1.485 1.474-1.485zm0-8.008h1.035v1.043c0 .818-.661 1.485-1.474 1.485h-1.035v-1.043c0-.819.662-1.485 1.474-1.485zm0-8.008h1.035v1.043c0 .819-.661 1.485-1.474 1.485h-1.035v-1.042c0-.82.662-1.486 1.474-1.486zM21.943 7.954h-.255c-.393 0-.714-.4-.714-.892v-1.04c0-.492.32-.892.714-.892h.255v2.824zm.662-5.34a.665.665 0 00-.662.668v.513h-.255c-1.124 0-2.038 1-2.038 2.227v1.04c0 1.228.914 2.227 2.038 2.227h.255v2.824h-.255c-.393 0-.714-.4-.714-.892a.665.665 0 00-.662-.668.665.665 0 00-.662.668c0 1.228.914 2.227 2.038 2.227h.255v2.426c-3.677-.339-6.567-3.461-6.567-7.253 0-4.016 3.243-7.284 7.23-7.284 3.985 0 7.228 3.268 7.228 7.284 0 3.792-2.89 6.914-6.567 7.253v-2.427h.256c1.123 0 2.038-.998 2.038-2.226v-1.04c0-.58-.203-1.13-.57-1.546a1.942 1.942 0 00-1.469-.681h-.255V5.13h.256c.393 0 .713.4.713.892 0 .369.296.667.662.667a.665.665 0 00.663-.667c0-1.228-.915-2.227-2.038-2.227h-.256v-.513a.665.665 0 00-.662-.668zm.662 9.499V9.289h.255A.64.64 0 0124 9.52a.991.991 0 01.236.66v1.04c0 .492-.32.892-.713.892h-.256zm12.411 25.035l-.067 1.04-1.033-.068a1.483 1.483 0 01-1.374-1.58l.068-1.04 1.032.069a1.483 1.483 0 011.374 1.58zm3.097-2.788a1.469 1.469 0 011.956-.724l.94.438-.435.946a1.468 1.468 0 01-1.956.724l-.94-.437.435-.947zM6.238 25.061a.665.665 0 00-.662-.667.665.665 0 00-.663.667c0 1.167.92 2.121 2.013 2.036v.37c0 .368.297.667.662.667a.665.665 0 00.663-.668v-.369c1.081.061 2.015-.845 2.012-2.036v-.912c0-.53-.185-1.03-.52-1.412a1.817 1.817 0 00-1.492-.624v-2.316c.364-.063.688.251.688.701 0 .369.296.668.662.668a.665.665 0 00.662-.668c0-1.2-.926-2.096-2.012-2.036v-.369a.665.665 0 00-.663-.667.665.665 0 00-.662.667v.37c-1.092-.075-2.015.854-2.013 2.035v.913c-.005 1.167.92 2.12 2.013 2.036v2.316c-.375.047-.688-.24-.688-.702zm2.013-1.614c.19-.044.42.086.501.177.12.136.187.323.187.525v.912c-.006.439-.32.772-.688.702v-2.316zm-2.013-2.036v-.913c-.001-.438.326-.771.688-.701v2.316c-.375.047-.688-.24-.688-.702z"/></svg><svg viewBox="0 0 46 46" id="icon-company4" xmlns="http://www.w3.org/2000/svg"><g clip-path="url(#lclip0_1789_5586)"><path d="M19.207 30.177c-.608 0-1.123-.698-1.123-1.524a1.997 1.997 0 00-1.987-2.002 1.997 1.997 0 00-1.987 2.002c0 3.048 2.287 5.528 5.097 5.528h1.412v2.001c0 1.104.89 2.002 1.986 2.002a1.997 1.997 0 001.987-2.002V34.18h1.411a4.72 4.72 0 002.199-.54.67.67 0 00.284-.9.66.66 0 00-.892-.286c-.5.26-1.035.392-1.59.392H23.93a.665.665 0 00-.662.667v2.67a.666.666 0 01-.663.667.666.666 0 01-.662-.668v-2.669a.665.665 0 00-.662-.667h-2.074c-2.08 0-3.772-1.881-3.772-4.193 0-.368.297-.667.662-.667.365 0 .662.3.662.667 0 1.576 1.099 2.858 2.448 2.858h2.074a.665.665 0 00.662-.667v-6.732a.665.665 0 00-.662-.668h-2.073c-1.023 0-1.98-.446-2.695-1.256-.695-.788-1.078-1.831-1.078-2.936v-2.35c0-2.313 1.692-4.194 3.772-4.194h2.074a.665.665 0 00.662-.667v-2.67c0-.367.297-.667.662-.667.366 0 .663.3.663.668v2.669c0 .368.296.667.662.667h2.073c2.08 0 3.773 1.881 3.773 4.193a.665.665 0 01-.662.667.666.666 0 01-.663-.667c0-1.576-1.098-2.858-2.448-2.858H23.93a.665.665 0 00-.662.667v6.732c0 .177.07.347.194.472a.66.66 0 00.468.196h2.073c1.023 0 1.98.446 2.695 1.256.695.788 1.078 1.831 1.078 2.937v2.35c0 .652-.132 1.276-.39 1.856a.67.67 0 00.331.883.66.66 0 00.876-.335 5.854 5.854 0 00.507-2.404v-2.35c0-1.433-.501-2.79-1.413-3.823-.97-1.1-2.278-1.705-3.684-1.705h-1.41v-5.397h1.41c.61 0 1.124.697 1.124 1.523 0 1.104.89 2.002 1.986 2.002a1.997 1.997 0 001.987-2.002c0-3.048-2.286-5.527-5.097-5.527h-1.41V9.372a1.997 1.997 0 00-1.988-2.002 1.997 1.997 0 00-1.986 2.002v2.002h-1.412c-2.81 0-5.097 2.48-5.097 5.527v2.35c0 1.433.502 2.79 1.413 3.823.97 1.1 2.279 1.705 3.685 1.705h1.41v5.398h-1.41zm3.398-26.618A18.808 18.808 0 0011.28 7.323a.67.67 0 00-.138.933.659.659 0 00.926.14 17.5 17.5 0 0110.538-3.502c9.787 0 17.75 8.022 17.75 17.883 0 9.861-7.963 17.884-17.75 17.884-9.786 0-17.748-8.023-17.748-17.884 0-4.63 1.757-9.026 4.947-12.375a.67.67 0 00-.02-.943.659.659 0 00-.935.019 19.198 19.198 0 00-5.317 13.3c0 10.596 8.556 19.217 19.073 19.217 10.518 0 19.074-8.621 19.074-19.218S33.123 3.56 22.605 3.56zM38.59 6.67C34.32 2.37 28.643 0 22.605 0S10.891 2.37 6.621 6.671C2.35 10.973 0 16.693 0 22.777c0 6.084 2.351 11.804 6.62 16.106 4.27 4.302 9.947 6.671 15.985 6.671s11.715-2.37 15.985-6.671c4.27-4.302 6.62-10.022 6.62-16.106 0-6.084-2.35-11.804-6.62-16.106zm-.937 31.268c-4.02 4.05-9.363 6.28-15.048 6.28-5.684 0-11.028-2.23-15.047-6.28-4.02-4.05-6.233-9.434-6.233-15.162 0-5.728 2.213-11.112 6.233-15.162 4.019-4.05 9.363-6.28 15.047-6.28 5.685 0 11.029 2.23 15.048 6.28 4.02 4.05 6.233 9.434 6.233 15.162 0 5.728-2.213 11.112-6.233 15.162zm-11.65-14.495H23.93a.665.665 0 00-.662.668v6.732c0 .368.296.667.662.667h2.073c1.35 0 2.448-1.282 2.448-2.858v-2.35c0-.779-.264-1.506-.743-2.05-.46-.521-1.066-.809-1.705-.809zm1.124 5.209c0 .826-.515 1.524-1.123 1.524h-1.412v-5.398h1.411c.256 0 .51.128.715.36.264.3.409.713.409 1.164v2.35zm-5.846-14.61h-2.074c-1.35 0-2.448 1.282-2.448 2.858v2.35c0 .779.265 1.507.744 2.05.46.522 1.066.809 1.704.809h2.074a.665.665 0 00.662-.668V14.71a.665.665 0 00-.662-.667zm-.662 6.732h-1.412c-.255 0-.509-.128-.714-.36-.264-.3-.409-.712-.409-1.163v-2.35c0-.827.515-1.525 1.123-1.525h1.412v5.398z" opacity=".7"/></g><defs><clipPath id="lclip0_1789_5586"><path d="M0 0h45.211v45.554H0z"/></clipPath></defs></svg><svg viewBox="0 0 20 14" id="icon-mail" xmlns="http://www.w3.org/2000/svg"><path d="M16.299 0H2.859A2.866 2.866 0 000 2.866v8.268A2.866 2.866 0 002.859 14h13.44a2.867 2.867 0 002.859-2.866V2.866A2.867 2.867 0 0016.298 0zm0 1.474h.118l-6.838 4.98-6.838-4.98H16.3zm1.385 9.66a1.392 1.392 0 01-1.385 1.392H2.859a1.392 1.392 0 01-1.385-1.392V2.866c.001-.148.026-.294.073-.434l7.605 5.533a.737.737 0 00.87 0l7.596-5.533c.047.14.072.286.074.434l-.008 8.268z"/></svg><svg viewBox="0 0 20 20" id="icon-name" xmlns="http://www.w3.org/2000/svg"><path d="M19.23 10c0-5.09-4.14-9.23-9.23-9.23C4.91.77.77 4.91.77 10a9.198 9.198 0 002.825 6.633c.04.053.09.096.145.132A9.186 9.186 0 0010 19.231c2.417 0 4.613-.94 6.26-2.466a.564.564 0 00.145-.132A9.198 9.198 0 0019.23 10zM10 1.923c4.454 0 8.077 3.624 8.077 8.077a8.031 8.031 0 01-1.746 5.001c-.5-1.614-1.93-2.877-3.868-3.458a4.196 4.196 0 001.748-3.404A4.212 4.212 0 0010 3.934 4.212 4.212 0 005.79 8.14c0 1.4.69 2.639 1.747 3.404-1.939.58-3.367 1.844-3.868 3.458a8.031 8.031 0 01-1.746-5c0-4.454 3.623-8.078 8.077-8.078zM6.943 8.14a3.057 3.057 0 016.114 0 3.057 3.057 0 01-6.114 0zM4.64 16.025c.174-2.115 2.417-3.68 5.361-3.68s5.188 1.565 5.361 3.68A8.034 8.034 0 0110 18.077a8.034 8.034 0 01-5.36-2.052z"/></svg><svg viewBox="0 0 18 18" id="icon-theme" xmlns="http://www.w3.org/2000/svg"><path d="M15.505 6.29c-.137 0-.274-.01-.41-.029-.799-.107-1.586-.513-2.215-1.142-.628-.629-1.034-1.415-1.142-2.215-.115-.855.131-1.657.675-2.2.545-.545 1.347-.791 2.201-.676.8.108 1.587.513 2.216 1.142.629.63 1.034 1.416 1.142 2.215.115.855-.131 1.657-.675 2.201-.457.456-1.094.703-1.792.703zM13.828 4.17c.416.417.944.694 1.447.76.443.06.824-.045 1.072-.295.248-.25.355-.63.295-1.072-.068-.503-.345-1.03-.76-1.447-.81-.809-1.964-1.022-2.52-.466-.557.556-.344 1.71.466 2.52zM5.928 15.865a3.04 3.04 0 01-.409-.027c-.8-.108-1.586-.513-2.215-1.143-.629-.629-1.035-1.415-1.142-2.215-.115-.854.131-1.657.675-2.2a.67.67 0 11.948.947c-.25.25-.354.631-.295 1.073.068.503.346 1.03.76 1.446.813.813 1.966 1.025 2.522.469a.67.67 0 11.948.947c-.456.457-1.093.703-1.792.703z"/><path d="M.67 18a.669.669 0 01-.654-.815c.012-.052.289-1.296.673-2.668.722-2.573 1.158-3.247 1.457-3.546L12.414.704a.67.67 0 11.948.948L3.094 11.919c-.04.04-.414.466-1.114 2.96-.157.56-.297 1.104-.407 1.549.447-.11.993-.25 1.553-.409 2.49-.699 2.915-1.072 2.956-1.112L16.349 4.639a.67.67 0 01.948.948L7.03 15.856c-.298.299-.971.734-3.546 1.457-1.37.384-2.615.661-2.668.673a.669.669 0 01-.145.015z"/><path d="M14.968 3.927a.67.67 0 01-.474-.197l-.224-.223a.67.67 0 01.948-.948l.223.224a.67.67 0 01-.473 1.144z"/></svg><svg viewBox="0 0 23 23" id="icon1" xmlns="http://www.w3.org/2000/svg"><path d="M11.5 21.085a9.583 9.583 0 100-19.167 9.583 9.583 0 000 19.167zM1.917 11.5h19.166"/><path d="M11.5 1.918a14.662 14.662 0 013.833 9.583 14.662 14.662 0 01-3.834 9.584A14.662 14.662 0 017.666 11.5a14.663 14.663 0 013.833-9.583z"/></svg><svg viewBox="0 0 23 23" id="icon2" xmlns="http://www.w3.org/2000/svg"><path d="M11.5 15.335a3.833 3.833 0 100-7.667 3.833 3.833 0 000 7.667z"/><path d="M15.333 7.667v4.791a2.875 2.875 0 105.75 0V11.5a9.583 9.583 0 10-3.756 7.61"/></svg><svg viewBox="0 0 22 22" id="icon3" xmlns="http://www.w3.org/2000/svg"><path d="M13.388 4.823a4.776 4.776 0 013.782 3.775l-3.782-3.775zm0-3.823a8.624 8.624 0 015.138 2.463A8.594 8.594 0 0121 8.588L13.388 1zm6.655 15.214v2.867a1.907 1.907 0 01-1.302 1.818c-.253.085-.52.117-.786.093a18.972 18.972 0 01-8.263-2.934 18.654 18.654 0 01-5.745-5.733 18.89 18.89 0 01-2.94-8.286 1.908 1.908 0 011.134-1.92c.243-.108.506-.163.772-.163h2.873A1.917 1.917 0 017.7 3.599c.12.918.346 1.819.67 2.686A1.908 1.908 0 017.94 8.3L6.724 9.515a15.305 15.305 0 005.745 5.734l1.216-1.214a1.916 1.916 0 012.02-.43c.869.324 1.771.548 2.69.669a1.916 1.916 0 011.648 1.94z"/></svg><svg viewBox="0 0 24 24" id="icon4" xmlns="http://www.w3.org/2000/svg"><path d="M12 19a7 7 0 100-14 7 7 0 000 14z"/><path d="M12 9v3l1.5 1.5M7.49 6.65l.35-3.83A2 2 0 019.83 1h4.35a2 2 0 012 1.82l.35 3.83m-.02 10.7l-.35 3.83a2 2 0 01-2 1.82H9.83a2 2 0 01-2-1.82l-.35-3.83h9.03z"/></svg><svg version="1.0" viewBox="0 0 1162 1280" id="melodi1" xmlns="http://www.w3.org/2000/svg"><path d="M1159.5 1.1c-1.1.5-31.9 7.9-68.5 16.4-59.3 13.9-98.9 22.8-200 45.1-45.7 10.1-373.8 83-436.5 97-30.8 6.9-59.7 13.8-64.3 15.3-20.2 7-31.8 19-37.9 39.6-1.7 5.7-1.8 24.8-2.1 399.2-.2 340.6-.4 393.3-1.7 393.3-.7 0-2.9-.9-4.7-1.9-11.7-6.9-39.3-14.9-60.1-17.6-15.2-1.9-43.5-1.9-60.2 0-81.3 9.6-159.4 53.6-198.5 111.9-7 10.4-14.2 24.6-17.5 34.5-3.4 10.3-7.5 30.2-7.5 36.6 0 6.4 4.1 26.3 7 33.5 16.1 41 57.3 66.8 118.5 74.1 22.2 2.6 29.4 2.4 60-1.8 50.6-6.8 100-27 141.3-57.7 13.8-10.3 38.7-35.2 47.2-47.3 12.9-18.4 20.5-34.2 25-51.8 2.1-8 2.1-8.2 2-324.7-.1-234 .2-319.1 1.1-325.5 1.3-9.8 5.2-21.6 9.4-28.3 9.4-14.9 27.1-26.7 52-34.5 9.9-3.1 575.7-129.5 579.8-129.5 1.6 0 1.7 17.3 1.7 270 0 229.8-.2 270-1.4 270-.8 0-4.9-1.7-9.2-3.9-14.8-7.2-31.6-12.3-52.9-15.8-15.2-2.4-52-2.4-68.9.1-25 3.6-44.3 8.5-66.6 16.8-61.9 23-112.5 63.8-136.4 109.8-10.4 20.2-14.6 36.2-14.6 56.2 0 26.6 8.2 46.7 27 65.9 22.2 22.7 53.8 36.3 94.9 41 17.2 1.9 52.4.7 70.6-2.5 59.6-10.4 114.6-37.1 153.7-74.5 27.6-26.3 43.2-51 51.6-81.6l2.7-10 .2-389.5c.2-267.6.6-392.9 1.3-400.2 4.3-43.2 26-71.8 59.3-78.1l5.7-1.1V24.8c0-13.6-.1-24.8-.2-24.7-.2 0-1.2.5-2.3 1z"/></svg><svg viewBox="0 0 24 33" id="play" xmlns="http://www.w3.org/2000/svg"><path d="M23.776 16.445L0 .745v31.516l23.776-15.816z"/></svg><svg viewBox="0 0 9 8" id="polygon" xmlns="http://www.w3.org/2000/svg"><path d="M5.455 7.441a.968.968 0 01-1.679 0L.418 1.581a.968.968 0 01.84-1.45h6.716c.744 0 1.21.804.84 1.45L5.455 7.44z"/></svg><svg viewBox="0 0 13 10" id="price-tags" xmlns="http://www.w3.org/2000/svg"><path d="M12.031 0h-3.75c-.258 0-.618.149-.8.331l-4.65 4.65a.47.47 0 000 .663l4.025 4.025a.47.47 0 00.663 0l4.65-4.65c.182-.182.331-.542.331-.8V.469A.47.47 0 0012.031 0zM9.688 3.75a.938.938 0 110-1.876.938.938 0 010 1.876z"/><path d="M1.25 5.313L6.563 0h-.781c-.258 0-.618.149-.8.331l-4.65 4.65a.47.47 0 000 .663l4.025 4.025a.47.47 0 00.663 0l.294-.294-4.063-4.063z"/></svg><svg viewBox="0 0 10 10" id="telegram" xmlns="http://www.w3.org/2000/svg"><path d="M6.635 7.294l.82-3.867c.073-.34-.123-.474-.346-.391L2.288 4.894c-.329.128-.324.313-.056.396l1.233.385 2.863-1.802c.134-.089.257-.039.156.05L4.168 6.016l-.089 1.272c.128 0 .184-.056.251-.123l.603-.58 1.25.921c.229.128.391.061.452-.212zM10 5c0 2.762-2.238 5-5 5S0 7.762 0 5s2.238-5 5-5 5 2.238 5 5z"/></svg><svg viewBox="0 0 10 10" id="twitter" xmlns="http://www.w3.org/2000/svg"><path d="M10 2.211a4.054 4.054 0 01-1.178.322 2.06 2.06 0 00.902-1.135 4.135 4.135 0 01-1.303.498 2.053 2.053 0 00-1.498-.646 2.05 2.05 0 00-1.998 2.518A5.822 5.822 0 01.696 1.623a2.049 2.049 0 00-.277 1.031c0 .711.361 1.34.912 1.707a2.065 2.065 0 01-.93-.256v.025c0 .994.707 1.824 1.646 2.012a2.053 2.053 0 01-.928.035 2.06 2.06 0 001.916 1.426 4.113 4.113 0 01-3.039.85c.91.584 1.988.922 3.146.922 3.773 0 5.838-3.127 5.838-5.838 0-.09-.002-.178-.006-.266.4-.287.748-.648 1.023-1.061z"/></svg><svg viewBox="0 0 60 43" id="youtube" xmlns="http://www.w3.org/2000/svg"><path fill-rule="evenodd" clip-rule="evenodd" d="M53.476 2.19a7.497 7.497 0 015.288 5.26C60.049 12.12 60 21.854 60 21.854s0 9.684-1.236 14.354a7.497 7.497 0 01-5.288 5.26C48.78 42.698 30 42.698 30 42.698s-18.732 0-23.476-1.279a7.498 7.498 0 01-5.288-5.26C0 31.538 0 21.805 0 21.805S0 12.12 1.236 7.45c.691-2.556 2.767-4.62 5.288-5.309C11.219.911 29.999.911 29.999.911s18.782 0 23.477 1.279zM39.64 21.805l-15.618 8.947V12.858l15.618 8.947z"/></svg></svg>